<?xml version="1.0" encoding="UTF-8"?>
<svg id="Capa_1" data-name="Capa 1" xmlns="http://www.w3.org/2000/svg" viewBox="0 0 64 64">
  <defs>
    <style>
      .cls-1 {
        fill: #fff;
      }

      .cls-2 {
        fill: #d9e9c9;
      }

      .cls-3 {
        fill: #75b94b;
      }
    </style>
  </defs>
  <path class="cls-1" d="m39.29,48.88c.11-.48.25-.95.32-1.44.07-.47.28-.81.66-1.06-.58,3.42-.86,6.65-.88,10.12-.03,0-.07,0-.1,0,0-2.54,0-5.08,0-7.62Z"/>
  <path class="cls-1" d="m39.29,56.5s.07,0,.1,0c.13.88.26,1.76.4,2.63.15.87.32,1.74.48,2.61-.68-.48-.71-1.24-.82-1.96-.03-.2.05-.41-.17-.54v-2.75Z"/>
  <path class="cls-1" d="m40.29,46.27c-.41-.73-.08-1.76.6-1.89-.2.63-.4,1.26-.6,1.89Z"/>
  <path class="cls-1" d="m40.89,63.88c-.38,0-.57-.17-.58-.56-.01-.44-.39-.88-.01-1.33.2.63.4,1.26.6,1.89Z"/>
  <path class="cls-3" d="m30.76,64h-1c0-.35-.07-.68-.49-.72-.4-.04-.6.19-.63.58-.08,0-.17,0-.25,0,.05-.89-3.77-1.34-4.55-1.52-1.25-.3-4.3-2.23-5.47-1.43h0c-.3-.78-.78-.99-1.23-.55-.08-.04-.17-.08-.25-.12.04-1.25-2.38-2.04-3.26-2.72-.67-.52-1.32-1.16-2.04-1.66-.43-.3-.51-.18-.81-.52-.29-.34-.35-.74-.7-1.09-1.3-1.27-2.46-2.66-3.63-3.97-.5-.56-.51-.55-.83-1.38-.24-.61-.93-2.03-1.72-1.63-.16-.25-.32-.5-.49-.76-.05-.08-.1-.16-.16-.24-.11-.5-.34-.95-.58-1.39h0c-.34-.83-.68-1.67-1.01-2.51-.05-.2-.11-.4-.16-.6-.2-.63-.4-1.26-.6-1.89,0-.08,0-.16-.01-.24-.16-.87-.33-1.74-.48-2.61-.15-.88-.27-1.76-.4-2.63.02-3.47.3-6.7.88-10.12.01-.04.02-.08.02-.12.2-.63.4-1.26.6-1.89.05-.2.11-.4.16-.6.53-1.26,1.06-2.52,1.59-3.77.05-.12.1-.24.15-.36.62-1.05,1.25-2.09,1.87-3.14,1.71-2.44,3.62-4.76,5.91-6.67,2.48-2.08,5.21-3.43,7.97-5.06.84-.33,1.71-.57,2.51-1,.22.02.44,0,.61-.15,1.25-.32,2.5-.64,3.76-.95.21-.01.41-.03.62-.04,2.8-.38,5.82-.82,8.62-.25.5.04,1,.08,1.5.12.96.18,1.91.37,2.87.55.13.18.34.05.5.13.24.12.47.26.76.2.04.02.08.03.12.05.24.13.47.25.76.21,3.55,1.41,6.93,2.92,9.95,5.31,2.89,2.29,5.1,5.03,7.3,7.95l1.62,2.89s0,.08.03.11c.19.38.39.76.58,1.13.01.08.03.16.04.24.42.84.71,1.73,1,2.62.11.15.03.38.21.51.1,1.21.66,2.52.89,3.73.19.98.07,2.63.62,3.51v5c-.36.16-.48,2.89-.55,3.25-.24,1.35-.62,2.67-.96,3.99-.11.29-.23.59-.34.88-.26.71-.52,1.41-.77,2.12h0c-.21.46-.43.91-.64,1.37-.13.04-.11.15-.12.24-.15.26-.31.52-.46.78-1.35-.06-2.32,2.91-3.1,3.85-.85,1.03-1.72,2.11-2.67,2.99-.83.78-1.44,1.5-2.37,2.19-.71.53-2.2,1.41-2.14,2.32h0c-.73-.64-2.86.78-2.73,1.65h0c-.92-.33-1.42-.09-1.52.74-.04.13-.15.1-.25.11-.74-.48-.99-.02-1.62.26-.83.37-1.92.67-2.8.92-.89.25-5.34.52-5.34,1.67-.2.09-.46-.11-.62.15h-2c-.01-.42-.28-.56-.64-.61-.64-.09-1.23-.01-1.61.61Zm3.76-47.74c-.07-.24-.15-.49-.45-.5-.23,0-.29.18-.31.38-.04.01-.08.03-.12.04-.33,0-.66-.02-.99-.03-.51-.2-1.01-.17-1.52,0-.21,0-.41.02-.62.02-.3,0-.6-.1-.88.1-.42.08-.83.15-1.25.23-.02-.28-.16-.42-.45-.37-.35.06-.58.23-.54.62-.13.06-.25.11-.38.17-.12,0-.25,0-.37-.01-.64-.95-5.38,2.07-5.25,3.21-.46.5-.98.96-1.37,1.53h0c-.39.37-.72.78-.97,1.25-.12.14-.3.24-.29.46-.28.17-.36.49-.51.75-.63,1.16-1.23,2.33-1.46,3.65-.15.13-.14.32-.17.5-.87-.08-.69.82-.76,1.37-.06.55-.46,1.37.26,1.62v1.25c-.85.23-.19,5.4,1.16,5.24.11.17.22.35.33.52.22.5.45.99.67,1.49.01.26-.2.48-.12.75-.04.08-.08.17-.13.25-.07.38-.3.72-.25,1.12l-.13.25c-.1.33-.19.67-.29,1-1.06-.09-1.36,2.73-1.55,3.53-.17.7-.4,1.4.39,1.75.62.28,1.32-.1,1.44-.77v-.04c.14.08.24-.07.37-.09.06.46.36.48.72.4.55-.12,1.26,0,1.28-.89.12-.06.25-.12.37-.17.23.12.41-.14.62-.08.5.37.87.27,1.12-.28.5-.15,1-.31,1.51-.46.4.37.78.28,1.15-.04.28.14.56.27.84.41.15.54,1.44,1.11,1.93.84.03-.02.05-.07.07-.1.22.17.55.03.75.25.11.6.6.65,1.06.72.33.05.55-.11.56-.48.28.15.57.14.87.09.71,0,1.43,0,2.14,0,.08.01.16.03.24.04.03.47.38.55.71.45.48-.14,1.22.13,1.29-.74.42-.12.84-.23,1.25-.35.15.39.49.33.72.2.46-.26,1.19-.18,1.28-.94.46-.25.92-.5,1.37-.74.5.47.58.14.61-.31.12-.18.31-.26.51-.33.54.28,1.78-.98,1.77-1.46l-.02-.05c.42-.23.74-.57.99-.98.09-.09.18-.19.27-.28.17-.26.49-.4.59-.72l.17-.21c.38-.48.75-.96.98-1.54.25-.54.51-1.07.76-1.61.45-.6.6-1.3.72-2.01.18-.26.19-.58.25-.87.23-.31.15-.66.12-1,.22-1.07.32-2.16.25-3.25,0-.26.1-.52-.1-.75-.02-.55-.05-1.1-.28-1.62.1-.37-.08-.68-.22-1-.1-.37-.19-.74-.29-1.12-.26-.54-.37-1.14-.72-1.64-.03-.04-.07-.08-.1-.12-.03-.41-.35-.68-.52-1.02,0-.04,0-.07-.04-.09-.23-.34-.46-.68-.69-1.02-.1-.12-.2-.24-.3-.36-.3-.56-.74-1-1.23-1.39-.08-.08-.16-.16-.24-.24-.21-.25-.43-.5-.64-.75.18-.96-2.5-2.67-3.25-2.15l-.25-.12c-.02-.25.05-.55-.26-.68-.26-.1-.47-.01-.62.22-.13-.04-.29.03-.38-.13,0-.75-2.05-1.41-2.12-.55-.37-.11-.74-.2-1.13-.21l.02-.04Z"/>
  <path class="cls-3" d="m30.76,64c.38-.62.96-.7,1.61-.61.36.05.63.19.64.61h-2.25Z"/>
  <path class="cls-3" d="m28.89,64c-.01-.17-.16-.11-.25-.15.03-.39.23-.62.63-.58.42.05.49.37.49.72h-.87Z"/>
  <path class="cls-1" d="m16.61,28.27c.03-.18.02-.37.17-.5.83-.1.74-1.11.97-1.71.36-.92,1.09-1.64.99-2.7,0-.22.17-.32.29-.46.66.12,1.04-.37.97-1.25h0c.83-.02,1.69-.77,1.87-1.63.6-.31,1.17-.69,1.76-1.01.36-.2.89-.42.85-1.03.33-.16.65-.32.98-.47.82.25,1.33.06,1.53-.59.13-.06.25-.11.38-.17v.04c.05.18.14.35.37.3.28-.06.36-.29.38-.54.08-.01.17-.03.25-.04.42-.08.83-.15,1.25-.23.48.47.55.46.88-.1.21,0,.41-.02.62-.02.17.01.33.05.46.16.41.35.76.23,1.06-.16.33,0,.66.02.99.03.32.57.41.58.87.12.39,0,.76.1,1.13.21.62.18,1.25.36,1.87.54.19.64.32.69.88.35.04.01.08.02.12.03.2.65.46.78,1.14.59.04,0,.08.01.11.03,0,.27.04.53.33.66.21.09.35,0,.43-.21.16.1.32.21.49.31-.35.62,1.64,1.86,2.14,1.84.08.08.16.16.24.24-.08.49.62,1.39,1.11,1.43.04,0,.08-.03.11-.04.1.12.2.24.3.36-.25.63-.06.9.69,1.02.03.02.05.05.04.09-.23.72-.14.88.52,1.02.03.04.07.08.1.12-.3.58.07,1.07.24,1.57.07.22.3.16.47.07.1.37.19.74.29,1.12-.4.45-.35.67.22,1,.23.52.26,1.07.28,1.62-.48.32-.47.43.1.75.07,1.1-.03,2.18-.25,3.25-.16.32-.88.56-.12,1-.06.3-.07.61-.25.87-.61.21-.96,1.16-.72,2.01-.25.54-.51,1.07-.76,1.61-.73.14-1.12.76-.98,1.54l-.17.21c-.52-.03-.78.16-.59.72-.09.09-.18.19-.27.28-.9.02-1.13.25-.99.98l.02.05c-.59.49-1.18.97-1.77,1.46-.2.07-.39.15-.51.33-.2.1-.41.21-.61.31-.46.25-.92.5-1.37.74-.67.25-1.33.5-2,.75-.42.12-.84.23-1.25.35-.66.09-1.33.19-1.99.29-.08-.01-.16-.03-.24-.04-.71-.14-1.42-.18-2.14,0-.3.05-.59.06-.87-.09-.08,0-.17,0-.25.01-.23-.17-.48-.19-.75-.12-.22-.01-.39-.23-.63-.12-.2-.22-.53-.08-.75-.25l-2-.74c-.28-.14-.56-.27-.84-.41-.39-.28-.77-.02-1.15.04-.5.15-1,.31-1.51.46-.08,0-.16,0-.24,0-.6-.56-1.25-.4-1.5.37-.12.06-.25.12-.37.17-.25.04-.5.08-.74.12-.65-.49-1.46-.26-1.64.46v.04c-.25-.03-.47.19-.74.1-.2-.21-.4-.41-.6-.62.04-.08.08-.17.13-.25.81.02,1.74-4.61,1.25-4.75.04-.08.08-.17.13-.25.7-.22.74-.42.25-1.12.04-.08.08-.17.13-.25.3,0,.59-.05.58-.45,0-.29-.18-.39-.46-.31-.22-.5-.45-.99-.67-1.49.38-.56.31-.73-.37-.87h0c.39-.65.33-.83-.37-1.01-.2-.17-.09-.44-.21-.63.25-.02.43-.1.42-.4,0-.4-.53-1.37-.81-1.47v-.37c.24-.08.46-.19.42-.47-.04-.3-.28-.38-.55-.41-.01-.04-.03-.08-.04-.12v-1.25s.03-.08.04-.12c.26-.02.51-.1.55-.4.04-.29-.23-.35-.42-.47-.02-.14-.08-.28.06-.39.57-.12.42-.68.59-1.03.1-.22-.19-.31-.4-.33.02-.08.05-.17.07-.25Zm3.4,15.73c.02.24-.03.55.3.57.33.02.42-.25.45-.53.17-.06.33-.12.5-.18.59-.13,1.19-.23,1.75-.49.37-.09.75-.17,1.12-.26,1.98-.12,3.76,1.65,5.87,1.75.91.22,1.82.41,2.76.17,1.71-.07,3.34-.49,4.87-1.25.12-.06.24-.11.37-.17,1.1-.55,2.11-1.21,2.97-2.1.22-.21.43-.42.65-.63.49.47,2.71-2.18,2.12-2.88.02-.2.1-.36.24-.49.66-.12.67-.15.5-1.15.02-.36,1.06-1.95.52-2.23.04-.58.19-1.16.09-1.74.22-.42.22-.83.02-1.26.01-.21.02-.42.03-.63.21-.12.55-.24.38-.53-.3-.51.1-1.36-.77-1.58,0-.04,0-.08,0-.13.27-.18.38-.41.26-.73-.12-.33-.32-.52-.68-.5-.25-.25-.2-.65-.47-.89-.05-.08-.1-.16-.15-.24-.14-.3-.09-.71-.47-.88-.09-.16-.18-.32-.26-.48.02-.14.06-.28.07-.42.04-.57-.66-1.2-1.2-1.08-.37-.29-.7-.62-.99-.99.4-.84-2.47-2.66-2.62-1.79-.17-.08-.33-.16-.5-.25-.14-.93-1.55-1.45-2.37-.88-.33-.05-.67-.06-.93-.32-.21-.21-.39-.01-.57.07,0-.27-.07-.5-.38-.56-.34-.06-.43.18-.5.43-.67,0-1.33,0-2,0-.08-.73-2.13-.4-2.24.29-.04.13-.16.1-.25.12-.44-.91-5.77,1.84-5.5,3.09-.22.22-.43.43-.65.65-.88-.21-2.31,1.93-1.96,2.79-.14.28-.27.56-.41.83-.66.01-.55.37-.34.77-.04.12-.08.24-.11.35-.04.12-.08.25-.12.37-.18.4-.1.91-.48,1.24-.02.02.07.17.1.26-.24,1.2-.1,2.42-.17,3.62-.47.37-.42.66.12.88h.04c-.07.17.03.33.09.49-.45.15-.35.47-.28.81.07.37.24.6.65.57,0,.08.02.16.03.24-.19.9-.02,1.32.6,1.51.05.08.1.16.15.24-.23.72.35,1.13.41,1.79.05.55-.6,1.28-.06,1.71-.04.09-.08.17-.12.26-.49.29-.55.54-.21,1-.01.08-.03.16-.04.24-.3.02-.51.15-.57.46-.05.28.07.48.36.55,0,.04-.01.08,0,.12Z"/>
  <path class="cls-3" d="m16.89,60.23c-4.86-2.69-8.21-6.33-11.62-10.6-.46-.79-.92-1.58-1.38-2.37.79-.4,1.48,1.02,1.72,1.63.32.82.33.81.83,1.38,1.16,1.31,2.33,2.69,3.63,3.97.36.35.41.75.7,1.09.3.34.38.22.81.52.72.5,1.37,1.14,2.04,1.66.88.69,3.3,1.48,3.26,2.72Z"/>
  <path class="cls-3" d="m58.75,49.63c-2.71,3.34-5.26,6.43-8.87,8.87-.06-.9,1.43-1.79,2.14-2.32.93-.69,1.54-1.41,2.37-2.19.95-.88,1.83-1.97,2.67-2.99.78-.94,1.76-3.91,3.1-3.85-.35.9-1.02,1.61-1.41,2.49Z"/>
  <path class="cls-3" d="m28.39,63.85c-2.3-.26-4.55-.74-6.74-1.48-.24-.25-.57-.29-.88-.35-.78-.41-1.66-.62-2.4-1.12,1.16-.8,4.21,1.12,5.47,1.43.78.19,4.6.64,4.55,1.52Z"/>
  <path class="cls-3" d="m45.39,61.01c-2.92,1.74-6.45,2.35-9.76,2.85,0-1.16,4.45-1.42,5.34-1.67.88-.25,1.97-.55,2.8-.92.63-.28.88-.74,1.62-.26Z"/>
  <path class="cls-3" d="m16.89,47.76c.27.08.5-.13.76-.1-.11.67-.82,1.05-1.44.77-.78-.35-.55-1.05-.39-1.75.19-.8.49-3.63,1.55-3.53,0,.06,0,.13-.01.18-.35,1.18-.72,2.35-.95,3.56-.04.08-.08.17-.13.25-.04.23-.28.49-.08.68.18.18.46.08.68-.06Z"/>
  <path class="cls-3" d="m25.48,17.52c-.33.16-.65.32-.98.47-1.03.47-1.92,1.13-2.74,1.91-.12.07-.25.15-.37.22-.13-1.14,4.61-4.16,5.25-3.21-.39.2-.77.4-1.16.6Z"/>
  <path class="cls-3" d="m16.3,33.52c0,.12,0,.25-.01.37.13.62.26,1.25.38,1.87.12.19.01.46.21.63.05.36.14.71.37,1.01h0c.01.12.03.23.04.35-1.35.16-2.01-5.01-1.16-5.24.01.04.03.08.04.12.05.29.09.58.14.87Z"/>
  <path class="cls-1" d="m16.42,46.89c.22-1.21.6-2.39.95-3.56.02-.06,0-.12.01-.18.1-.33.19-.67.29-1,.5.14-.44,4.77-1.25,4.75Z"/>
  <path class="cls-1" d="m18.75,23.37c.1,1.06-.63,1.78-.99,2.7-.23.59-.14,1.6-.97,1.71.23-1.32.83-2.49,1.46-3.65.14-.26.22-.58.51-.75Z"/>
  <path class="cls-3" d="m49.88,58.5c-.86.63-1.78,1.17-2.73,1.65-.13-.87,2-2.29,2.73-1.65Z"/>
  <path class="cls-3" d="m39.76,18.06s-.07-.03-.11-.03c-.13-.09-.26-.18-.39-.27.75-.52,3.43,1.18,3.25,2.15-.5-.36-1-.73-1.5-1.09-.16-.1-.32-.21-.49-.31-.26-.14-.45-.4-.76-.45Z"/>
  <path class="cls-3" d="m16.16,31.15s-.03.08-.04.12c-.73-.26-.33-1.07-.26-1.62.06-.55-.11-1.45.76-1.37-.02.08-.05.17-.07.25-.06.45-.13.91-.19,1.36-.14.11-.09.25-.06.39-.04.29-.09.58-.13.87Z"/>
  <path class="cls-3" d="m37.51,17.05c-.62-.18-1.25-.36-1.87-.54.07-.86,2.11-.2,2.12.55-.08,0-.16,0-.24,0Z"/>
  <path class="cls-1" d="m41,18.81c.5.36,1,.73,1.5,1.09.21.25.43.5.64.75-.51.03-2.49-1.22-2.14-1.84Z"/>
  <path class="cls-1" d="m21.39,20.12c.12-.07.25-.15.37-.22.04.04.08.08.13.13-.18.86-1.04,1.6-1.87,1.63.39-.57.91-1.03,1.37-1.53Z"/>
  <path class="cls-3" d="m19.27,47.15c.25-.04.5-.08.74-.12-.01.89-.73.77-1.28.89-.36.08-.66.06-.72-.4.41-.16.9-.05,1.25-.38Z"/>
  <path class="cls-3" d="m33.26,47.78c.66-.09,1.33-.19,1.99-.29-.06.87-.81.6-1.29.74-.33.1-.68.02-.71-.45Z"/>
  <path class="cls-3" d="m36.51,47.15c.67-.25,1.33-.5,2-.75-.09.76-.82.69-1.28.94-.23.13-.57.19-.72-.2Z"/>
  <path class="cls-1" d="m46.51,38.16c-.23-.85.11-1.8.72-2.01-.12.71-.28,1.42-.72,2.01Z"/>
  <path class="cls-1" d="m19.27,47.15c-.36.33-.85.22-1.25.38-.13.01-.23.16-.38.09.18-.72.99-.95,1.64-.46Z"/>
  <path class="cls-3" d="m25.64,46.41l2,.74s-.04.08-.07.1c-.49.26-1.78-.3-1.93-.84Z"/>
  <path class="cls-3" d="m47.15,60.15c-.49.27-.98.56-1.52.74.09-.83.59-1.07,1.52-.74Z"/>
  <path class="cls-1" d="m20.39,46.86c.25-.77.9-.93,1.5-.37-.32.01-.54.32-.87.29-.22-.06-.4.2-.62.08Z"/>
  <path class="cls-1" d="m46.98,26.53c-.18.09-.4.15-.47-.07-.17-.51-.54-.99-.24-1.57.35.5.46,1.11.72,1.64Z"/>
  <path class="cls-1" d="m44.77,41.3c-.14-.78.25-1.4.98-1.54-.23.58-.6,1.06-.98,1.54Z"/>
  <path class="cls-1" d="m44.61,22.28s-.08.05-.11.04c-.49-.04-1.19-.94-1.11-1.43.49.39.93.83,1.23,1.39Z"/>
  <path class="cls-3" d="m41,45.01c.59-.49,1.18-.97,1.77-1.46,0,.48-1.22,1.74-1.77,1.46Z"/>
  <path class="cls-1" d="m20.02,21.66c.06.88-.31,1.37-.97,1.25.25-.47.59-.88.97-1.25Z"/>
  <path class="cls-1" d="m25.48,17.52c.39-.2.77-.4,1.16-.6.12,0,.25,0,.37.01-.21.65-.71.84-1.53.59Z"/>
  <path class="cls-3" d="m29.76,47.66c.08,0,.17,0,.25-.01-.01.37-.23.53-.56.48-.46-.07-.95-.12-1.06-.72.24-.11.41.11.63.12.2.31.42.55.75.12Z"/>
  <path class="cls-1" d="m42.75,43.5c-.14-.74.09-.96.99-.98-.25.41-.57.75-.99.98Z"/>
  <path class="cls-3" d="m18.37,60.9c-.46-.06-.83-.34-1.23-.55.45-.44.93-.23,1.23.55Z"/>
  <path class="cls-1" d="m32.65,16.15c-.3.39-.64.51-1.06.16-.13-.11-.29-.15-.46-.16.51-.18,1.01-.2,1.52,0Z"/>
  <path class="cls-1" d="m18.04,40.77c.49.71.45.9-.25,1.12-.05-.4.18-.75.25-1.12Z"/>
  <path class="cls-1" d="m45.6,23.65c-.75-.11-.94-.39-.69-1.02.23.34.46.68.69,1.02Z"/>
  <path class="cls-3" d="m28.39,16.51c-.08.01-.17.03-.25.04-.28,0-.52.12-.76.25v-.04c-.02-.39.21-.56.56-.62.29-.05.43.1.45.37Z"/>
  <path class="cls-3" d="m38.51,17.43s-.08-.02-.12-.03c-.09-.07-.17-.15-.26-.22.15-.23.37-.32.62-.22.31.12.25.42.26.68-.17-.07-.33-.14-.5-.2Z"/>
  <path class="cls-1" d="m18.29,39.76c.27-.08.45.02.46.31.01.39-.27.44-.58.45-.08-.27.14-.49.12-.75Z"/>
  <path class="cls-1" d="m38.51,17.43c.17.07.33.14.5.2.08.04.17.08.25.12.13.09.26.18.39.27-.68.19-.93.05-1.14-.59Z"/>
  <path class="cls-1" d="m47.48,28.65c-.57-.33-.62-.55-.22-1,.14.32.32.63.22,1Z"/>
  <path class="cls-1" d="m46.16,24.76c-.66-.14-.74-.3-.52-1.02.17.34.48.61.52,1.02Z"/>
  <path class="cls-3" d="m21.01,46.78c.33.03.55-.28.87-.29.08,0,.16,0,.24,0-.25.56-.61.65-1.12.28Z"/>
  <path class="cls-1" d="m17.28,37.76c-.01-.12-.03-.24-.04-.35.68.14.75.31.37.87-.11-.17-.22-.35-.33-.52Z"/>
  <path class="cls-1" d="m47.49,35.27c-.76-.43-.04-.68.12-1,.02.34.1.69-.12,1Z"/>
  <path class="cls-1" d="m38.12,17.18c.09.07.17.15.26.22-.56.34-.68.29-.88-.35.08,0,.16,0,.24,0,.09.15.25.09.38.13Z"/>
  <path class="cls-1" d="m30.51,16.18c-.33.57-.4.57-.88.1.27-.2.58-.11.88-.1Z"/>
  <path class="cls-1" d="m34.5,16.3c-.46.45-.54.44-.87-.12.04-.01.08-.03.12-.04.25.04.5.08.76.12l-.02.04Z"/>
  <path class="cls-1" d="m47.86,31.02c-.57-.32-.58-.43-.1-.75.2.23.11.5.1.75Z"/>
  <path class="cls-3" d="m23.64,46.03c.38-.05.76-.32,1.15-.04-.37.31-.76.41-1.15.04Z"/>
  <path class="cls-1" d="m44.01,42.23c-.18-.55.07-.75.59-.72-.1.32-.42.45-.59.72Z"/>
  <path class="cls-3" d="m34.52,16.26c-.25-.04-.5-.08-.76-.12.02-.2.08-.38.31-.38.3,0,.37.27.45.5Z"/>
  <path class="cls-2" d="m30.88,47.74c.71-.17,1.43-.14,2.14,0-.71,0-1.43,0-2.14,0Z"/>
  <path class="cls-3" d="m39.88,45.66c.2-.1.41-.21.61-.31-.03.45-.11.79-.61.31Z"/>
  <path class="cls-3" d="m45.17,30.51c-.01.21-.02.42-.03.63-.08.12-.16.24-.24.35-.32.4-.26.71.22.91.1.59-.05,1.16-.09,1.74-.79.47-.67,1.42-.95,2.17-.27.74-.99,1.39-.67,2.23h0c-.91.17-1.15.54-.76,1.14,0,.04-.02.07-.05.09-.88-.07-1.04.11-.84.97-.04.05-.08.1-.13.15-.22.21-.43.42-.65.63-.8-.09-3.04,1.15-2.97,2.1-.12.06-.24.11-.37.17-.29-.84-2.08.33-2.53.45-.51.14-2.34.09-2.35.8-.94.25-1.85.06-2.76-.17-.32-.89-2.41-1.17-3.23-1.49-.69-.27-2.43-1.48-2.64-.26-.37.09-.75.17-1.12.26-.22-.44-.59-.38-.96-.26-.38.12-.84.17-.79.76-.17.06-.33.12-.5.18-.04-.02-.08-.03-.13-.05,0-.34-.17-.58-.48-.73-.07-.15.06-.25.08-.38.01-.08.03-.16.04-.24.26-.29.2-.66.21-1,.04-.09.08-.17.12-.26l.04.02c.27.11.58.19.61-.2.03-.38.21-.69.25-1.06.27-.76-.51-2.93-1.48-2.87-.05-.16-.1-.32-.16-.48.34-.52-.06-2.71-.84-2.78h-.04c.08-.3-.03-.58-.12-.87.07-1.21-.08-2.42.17-3.62.45-.11.54-.53.72-.87.19-.36.09-.59-.34-.63.04-.12.08-.25.12-.37.72,0,2.66-3.51,2.61-4.36.08-.13.15-.26.23-.39.22-.22.43-.43.65-.65.34-.1.49-.42.75-.62,1.44-1.11,3.02-1.94,4.75-2.47.1-.01.21.01.25-.12.76.02,1.49-.24,2.24-.29.67,0,1.33,0,2,0,.29.04.6-.01.87.12.18-.09.36-.28.57-.07.26.26.6.27.93.32.79.3,1.62.48,2.37.88.17.08.33.16.5.25.95.48,1.77,1.16,2.62,1.79.3.37.62.7.99.99.05.08.09.16.14.24.04.77.31,1.13.85,1.13.05.04.09.09.14.13.09.16.18.32.26.48-.33.47-.22.67.47.88.05.08.1.16.15.24-.2.5-.19.9.47,1,.08.4.19.78.42,1.12,0,.04,0,.08,0,.13-.13.23.16.4.09.62-.38.38-.25,1.17.25,1.5l.05-.02Zm-16.53-.61h0c.12-.14.24-.27.35-.41.48-.58.52-1,.15-1.59,0-.04-.02-.08-.03-.12-.15-.48-.34-.94-.6-1.38l-.27-.75c-.16-.35-.18-.79-.61-.97-1.16-.04-1.93-.09-2.7.87-.78.98-1.05,2.24-.9,3.48,0,.08-.01.16-.02.24-1.12,1.54,2.38,5.1,3.34,6.17.52.57,1.22,1.09,1.73,1.48.73.57,1.76,1.75,2.81,1.35.04,0,.08,0,.11.03.13.8,1.1,1.22,1.75.75,1,.44,2.05.52,3.12.5.13.4.43.36.75.29.39-.09.54-.33.49-.71.05-.11.15-.11.25-.12,1.29.67,2.8-2.3,1.66-2.47,0-.25,0-.5,0-.75.47-.13.45-.42.13-.66-.25-.19-.56-.12-.78.14-.17-.08-.33-.16-.5-.25-.07-.95-2.67-2.18-2.75-1.13-.12,0-.24.02-.36.03-.89.04-1.39.67-1.26,1.6-.33.37-.69.53-1.13.16.04-.45-.19-.74-.58-.91-.31-.14-.59-.14-.81.18-.17,0-.29-.1-.38-.24-.01-.89-.84-1.53-1.49-1.15-.04-.04-.08-.08-.13-.12.02-.12.05-.25.05-.37.03-.62-.74-1.3-1.3-1.15-.45-.18-.49-.63-.65-1-.11-.48.37-.65.52-1Z"/>
  <path class="cls-3" d="m24.14,43.11c.21-1.22,1.95-.01,2.64.26.82.33,2.91.6,3.23,1.49-2.11-.1-3.89-1.87-5.87-1.75Z"/>
  <path class="cls-1" d="m28.51,19.16c-1.73.54-3.31,1.36-4.75,2.47-.26.2-.41.52-.75.62-.27-1.25,5.06-4,5.5-3.09Z"/>
  <path class="cls-3" d="m32.77,45.03c.01-.7,1.84-.65,2.35-.8.45-.13,2.24-1.29,2.53-.45-1.54.76-3.16,1.18-4.87,1.25Z"/>
  <path class="cls-3" d="m22.14,23.29c.05.85-1.88,4.36-2.61,4.36.04-.12.08-.24.11-.35.11-.26.23-.51.34-.77.14-.28.27-.56.41-.83.53-.84,1-1.71,1.74-2.4Z"/>
  <path class="cls-3" d="m43.4,38.53c-.32-.84.4-1.49.67-2.23.28-.75.16-1.7.95-2.17.54.28-.5,1.87-.52,2.23-.17.38-.33.76-.5,1.15-.14.13-.23.3-.24.49l-.35.53Z"/>
  <path class="cls-3" d="m38.01,43.61c-.07-.95,2.17-2.19,2.97-2.1-.86.89-1.87,1.55-2.97,2.1Z"/>
  <path class="cls-3" d="m20.04,37.27c.97-.06,1.75,2.11,1.48,2.87-.16.19-.32.39-.6.37.22-1.28.09-1.48-.64-2.64-.05-.08-.1-.16-.15-.24.08-.15-.09-.24-.08-.37Z"/>
  <path class="cls-1" d="m40.88,22.04c-.85-.63-1.67-1.31-2.62-1.79.14-.87,3.02.95,2.62,1.79Z"/>
  <path class="cls-1" d="m20.27,37.88c.73,1.15.87,1.36.64,2.64-.11.29,0,.64-.25.88l-.04-.02c-.54-.43.11-1.17.06-1.71-.06-.66-.64-1.07-.41-1.79Z"/>
  <path class="cls-1" d="m22.14,23.29c-.74.69-1.21,1.56-1.74,2.4-.34-.86,1.08-3,1.96-2.79-.08.13-.15.26-.23.39Z"/>
  <path class="cls-1" d="m43.4,38.53l.35-.53c.59.7-1.63,3.35-2.12,2.88.04-.05.08-.1.13-.15.29-.32.63-.59.84-.97.04-.02.06-.05.05-.09.29-.35.57-.72.76-1.14h0Z"/>
  <path class="cls-1" d="m21.89,20.03s-.08-.08-.13-.13c.81-.78,1.7-1.45,2.74-1.91.04.6-.48.83-.85,1.03-.59.32-1.16.7-1.76,1.01Z"/>
  <path class="cls-3" d="m19.04,34.01c.78.07,1.19,2.26.84,2.78-.12-.22-.24-.44-.36-.66,0-.08-.02-.16-.03-.24-.12-.46-.24-.92-.37-1.37-.06-.16-.16-.32-.09-.51Z"/>
  <path class="cls-1" d="m37.76,20.01c-.75-.4-1.58-.58-2.37-.88.82-.57,2.23-.05,2.37.88Z"/>
  <path class="cls-1" d="m31.01,18.76c-.75.05-1.48.31-2.24.29.11-.68,2.16-1.02,2.24-.29Z"/>
  <path class="cls-3" d="m21.26,43.86c-.05-.58.41-.64.79-.76.37-.11.73-.17.96.26-.55.26-1.16.36-1.75.49Z"/>
  <path class="cls-1" d="m44.86,29.02c.08-.22-.21-.39-.09-.62.87.22.48,1.07.77,1.58.17.29-.18.4-.38.53l-.05.02c.03-.52-.07-1.02-.25-1.5Z"/>
  <path class="cls-1" d="m16.67,35.77c-.13-.62-.26-1.25-.38-1.87.28.1.8,1.07.81,1.47,0,.3-.18.38-.42.4Z"/>
  <path class="cls-1" d="m42.01,23.27c-.05-.08-.09-.16-.14-.24.54-.11,1.24.52,1.2,1.08-.01.14-.05.28-.07.42-.05-.04-.09-.09-.14-.13-.18-.46-.55-.77-.85-1.13Z"/>
  <path class="cls-3" d="m19.41,28.02c.43.04.53.27.34.63-.17.34-.27.75-.72.87-.04-.09-.13-.24-.1-.26.38-.33.29-.84.48-1.24Z"/>
  <path class="cls-1" d="m19.12,34.52c.12.46.24.92.37,1.37-.41.03-.58-.2-.65-.57-.06-.33-.16-.66.28-.81Z"/>
  <path class="cls-1" d="m44.78,28.27c-.23-.34-.34-.73-.42-1.12,0-.04,0-.08,0-.11.36-.01.56.18.68.5.12.33.02.55-.26.73Z"/>
  <path class="cls-1" d="m16.36,29.88c.06-.45.13-.91.19-1.36.21.02.5.11.4.33-.17.35-.01.91-.59,1.03Z"/>
  <path class="cls-1" d="m19.52,36.13c.12.22.24.44.36.66.05.16.1.32.16.48,0,.13.16.23.08.37-.62-.19-.79-.61-.6-1.51Z"/>
  <path class="cls-3" d="m45.11,32.4c-.48-.21-.54-.51-.22-.91.09-.11.16-.23.24-.35.2.42.19.84-.02,1.26Z"/>
  <path class="cls-1" d="m20.24,42.89c-.01.13-.15.23-.08.38-.07.2-.16.4-.13.63-.29-.07-.41-.26-.36-.55.06-.31.27-.44.57-.46Z"/>
  <path class="cls-3" d="m43.74,25.9c-.69-.21-.8-.41-.47-.88.38.17.33.57.47.88Z"/>
  <path class="cls-1" d="m17.25,37.41c-.23-.3-.32-.65-.37-1.01.69.17.76.36.37,1.01Z"/>
  <path class="cls-1" d="m33.88,18.88c-.28-.14-.58-.08-.87-.12.07-.25.16-.5.5-.43.31.06.38.29.38.56Z"/>
  <path class="cls-1" d="m20.64,44s.08.03.13.05c-.03.28-.12.56-.45.53-.33-.02-.28-.33-.3-.57.21.12.42.05.62-.01Z"/>
  <path class="cls-1" d="m44,37.51c.17-.38.33-.76.5-1.15.17,1,.16,1.02-.5,1.15Z"/>
  <path class="cls-1" d="m20.49,41.64c-.01.35.05.71-.21,1-.33-.46-.28-.72.21-1Z"/>
  <path class="cls-1" d="m16.3,33.52c-.05-.29-.09-.58-.14-.87.27.02.51.1.55.41.03.28-.18.39-.41.47Z"/>
  <path class="cls-1" d="m39.76,18.06c.31.05.5.3.76.45-.08.2-.21.3-.43.21-.29-.12-.33-.38-.33-.66Z"/>
  <path class="cls-1" d="m16.16,31.15c.04-.29.09-.58.13-.87.18.12.46.18.42.47-.04.3-.28.38-.55.4Z"/>
  <path class="cls-3" d="m20.64,44c-.21.06-.41.13-.62.01,0-.04,0-.08,0-.12-.02-.22.06-.42.13-.63.31.15.47.39.48.73Z"/>
  <path class="cls-1" d="m16.89,47.76c-.22.14-.5.24-.68.06-.19-.19.05-.45.08-.68.2.21.4.41.6.62Z"/>
  <path class="cls-3" d="m44.35,27.03s.01.08,0,.11c-.66-.1-.67-.5-.47-1,.27.24.22.64.47.89Z"/>
  <path class="cls-1" d="m27.38,16.8c.24-.13.48-.25.76-.25-.02.26-.1.48-.38.54-.23.05-.32-.11-.38-.3Z"/>
  <path class="cls-1" d="m18.87,33.15c.1.28.2.57.12.88-.54-.22-.6-.51-.12-.88Z"/>
  <path class="cls-1" d="m19.99,26.52c-.11.26-.23.51-.34.77-.21-.4-.32-.76.34-.77Z"/>
  <path class="cls-3" d="m29.76,47.66c-.33.42-.54.19-.75-.12.27-.06.52-.05.75.12Z"/>
  <path class="cls-1" d="m32.01,38.29s-.07-.03-.11-.03c-1.63-.96-3.17-2.03-4.38-3.51.04-.92-.74-1.36-1.29-2.01-.35-.42-.78-1.57-1.38-1.58-.16-.22-.31-.46-.35-.74.04-.53.39-1.17-.47-1.4-.15-1.24.12-2.49.9-3.48.77-.96,1.54-.91,2.7-.87.03.43-.14.99.61.97.09.25.18.5.27.75-.33.54-.07,1.14.6,1.38,0,.04.02.08.03.12-.28.52-.23,1.16-.6,1.66-.04.06.06.23.09.34h0c-.3,0-.64-.04-.79.31-.13.3.13.48.27.69.16.37.2.82.65,1,.38.54.72,1.1,1.24,1.52.04.04.08.08.13.12.44.46.93.85,1.49,1.15.09.13.21.23.38.24.39.37.89.55,1.38.73.44.38.8.22,1.13-.16.48-.49.97-.97,1.26-1.6.12,0,.24-.02.36-.03.18.02.35.03.54.09.79.25,1.45.75,2.21,1.03.17.08.33.16.5.25.2.2.58.17.65.52,0,.25,0,.5,0,.75-.1.81-.29,1.57-1.09,2.02-.21.12-.38.3-.57.45-.1.01-.2.01-.25.12-.41.14-.83.28-1.24.43-1.07.02-2.13-.06-3.12-.5-.58-.25-1.17-.5-1.75-.75Z"/>
  <path class="cls-3" d="m27.52,34.75c1.21,1.48,2.75,2.55,4.38,3.51-1.05.4-2.07-.78-2.81-1.35-.51-.39-1.21-.91-1.73-1.48-.97-1.07-4.47-4.63-3.34-6.17.25.35.15.85.49,1.16.04.28.18.52.35.74.69,1.35,1.6,2.53,2.67,3.59Z"/>
  <path class="cls-3" d="m38.37,38.99c.19-.15.36-.33.57-.45.79-.45.99-1.21,1.09-2.02,1.15.17-.37,3.14-1.66,2.47Z"/>
  <path class="cls-3" d="m38.88,35c-.77-.28-1.43-.78-2.21-1.03-.18-.06-.35-.07-.54-.09.08-1.06,2.68.18,2.75,1.13Z"/>
  <path class="cls-3" d="m31.62,34.68c-.56-.3-1.05-.69-1.49-1.15.65-.38,1.48.26,1.49,1.15Z"/>
  <path class="cls-3" d="m30.01,33.41c-.52-.42-.87-.98-1.24-1.52.56-.15,1.32.52,1.3,1.15,0,.12-.03.25-.05.37Z"/>
  <path class="cls-3" d="m35.77,33.9c-.3.63-.79,1.11-1.26,1.6-.12-.93.38-1.56,1.26-1.6Z"/>
  <path class="cls-3" d="m32.01,38.29c.58.25,1.17.5,1.75.75-.65.47-1.62.06-1.75-.75Z"/>
  <path class="cls-1" d="m28.64,29.9c-.03-.12-.13-.28-.09-.34.37-.5.32-1.13.6-1.66.37.6.33,1.01-.15,1.59-.11.14-.24.27-.35.41Z"/>
  <path class="cls-3" d="m33.38,35.65c-.49-.18-.99-.36-1.38-.73.21-.32.5-.32.81-.18.39.18.61.46.58.91Z"/>
  <path class="cls-3" d="m36.88,39.54c.41-.14.83-.28,1.24-.43.04.38-.11.63-.49.71-.32.07-.62.11-.75-.29Z"/>
  <path class="cls-3" d="m43.4,38.53c-.19.42-.46.79-.76,1.14-.4-.6-.15-.97.76-1.14Z"/>
  <path class="cls-3" d="m42.59,39.77c-.21.38-.55.65-.84.97-.2-.86-.04-1.04.84-.97Z"/>
  <path class="cls-3" d="m20.66,41.4c.25-.25.14-.6.25-.88.29.01.44-.19.6-.37-.04.36-.22.68-.25,1.06-.03.39-.34.31-.61.2Z"/>
  <path class="cls-3" d="m44.86,29.02c.18.49.28.98.25,1.5-.5-.34-.63-1.12-.25-1.5Z"/>
  <path class="cls-1" d="m29.11,27.77c-.66-.24-.92-.84-.6-1.38.25.44.45.9.6,1.38Z"/>
  <path class="cls-3" d="m40.03,35.77c-.07-.36-.45-.33-.65-.52.23-.25.54-.32.78-.14.31.24.33.53-.13.66Z"/>
  <path class="cls-1" d="m24.5,30.42c-.33-.32-.24-.81-.49-1.16,0-.08.01-.16.02-.24.86.23.51.87.47,1.4Z"/>
  <path class="cls-3" d="m42.01,23.27c.31.36.68.67.85,1.13-.54,0-.81-.36-.85-1.13Z"/>
  <path class="cls-1" d="m28.11,30.89c-.13-.21-.4-.39-.27-.69.15-.34.49-.3.79-.31-.15.34-.64.51-.52,1Z"/>
  <path class="cls-1" d="m28.24,25.65c-.75.02-.58-.54-.61-.97.43.18.45.62.61.97Z"/>
  <path class="cls-1" d="m27.52,34.75c-1.07-1.06-1.98-2.25-2.67-3.59.6.01,1.03,1.16,1.38,1.58.54.65,1.33,1.09,1.29,2.01Z"/>
</svg>