<?xml version="1.0" encoding="iso-8859-1"?>
<!-- Uploaded to: SVG Repo, www.svgrepo.com, Generator: SVG Repo Mixer Tools -->
<svg fill="#000000" height="800px" width="800px" version="1.1" id="Layer_1" xmlns="http://www.w3.org/2000/svg" xmlns:xlink="http://www.w3.org/1999/xlink" 
	 viewBox="0 0 502.4 502.4" xml:space="preserve">
<g>
	<g>
		<path d="M412.8,88.533h-45.867C358.4,38.4,314.667,0,262.4,0h-23.467c-52.267,0-96,38.4-104.533,88.533H89.6
			c-49.067,0-89.6,40.533-89.6,89.6V412.8c0,49.067,40.533,89.6,89.6,89.6h322.133c49.067,0,89.6-40.533,90.667-89.6V178.133
			C502.4,129.067,461.866,88.533,412.8,88.533z M92.8,461.867h-3.2c-26.667,0-48-21.333-48-48V179.2c0-26.667,21.333-48,48-48h3.2
			V461.867z M240,43.733h23.467c28.8,0,52.267,19.2,60.8,44.8H179.2C186.666,62.933,210.133,42.667,240,43.733z M365.866,461.867
			h-230.4V131.2c4.267,0,226.133,0,230.4,0V461.867z M460.8,413.867c0,26.667-21.333,48-48,48h-4.267V131.2h4.267
			c26.667,0,48,21.333,48,48V413.867z"/>
	</g>
</g>
</svg>