<svg width="475pt" height="57pt" viewBox="0 0 475 57" xmlns="http://www.w3.org/2000/svg"><g id="fontsvg1696265157730" stroke-linecap="round" fill-rule="evenodd" fill="#000000"><path d="M 422.109 3.958 L 422.109 10.208 A 5.056 5.056 0 0 1 421.369 10.352 Q 420.117 10.504 418.281 10.208 A 133.494 133.494 0 0 0 418.096 13.934 Q 417.849 20.6 417.969 31.068 A 906.465 906.465 0 0 1 418.03 35.573 Q 418.144 45.968 417.926 51.29 A 94.074 94.074 0 0 1 417.891 52.083 L 410.625 52.083 A 249.254 249.254 0 0 1 408.242 48.221 Q 404.492 42.025 399.688 33.411 A 19580.841 19580.841 0 0 1 397.386 29.25 Q 389.824 15.57 389.141 14.271 A 162.473 162.473 0 0 0 389.004 17.411 Q 388.883 20.905 388.845 25.459 A 526.61 526.61 0 0 0 388.828 29.818 A 15376.747 15376.747 0 0 1 388.855 34.327 Q 388.902 42.616 388.906 45.264 A 293.307 293.307 0 0 1 388.906 45.677 A 1.064 1.064 0 0 0 389.155 45.78 Q 389.609 45.911 390.547 45.911 A 286.036 286.036 0 0 1 391.115 45.885 Q 392.246 45.833 392.5 45.833 Q 392.726 46.587 392.661 48.723 A 38.03 38.03 0 0 1 392.656 48.88 A 9.408 9.408 0 0 0 392.633 49.244 Q 392.563 50.826 393.125 51.458 A 9.401 9.401 0 0 1 391.781 51.802 Q 389.88 52.154 386.936 52.103 A 48.092 48.092 0 0 1 386.172 52.083 A 271.673 271.673 0 0 0 384.827 52.049 Q 380.784 51.957 379.16 52.058 A 11.852 11.852 0 0 0 378.828 52.083 Q 378.647 51.358 378.606 49.976 A 29.148 29.148 0 0 1 378.594 49.115 L 378.594 45.911 L 382.031 45.911 Q 382.578 39.505 382.5 28.49 A 22292.799 22292.799 0 0 1 382.473 23.341 Q 382.422 13.089 382.422 10.677 A 0.901 0.901 0 0 0 382.159 10.541 Q 381.727 10.388 380.827 10.368 A 12.627 12.627 0 0 0 380.547 10.365 A 15.208 15.208 0 0 1 380.234 10.378 Q 379.011 10.417 378.594 10.208 L 378.594 6.771 A 11.33 11.33 0 0 1 378.586 6.465 Q 378.571 4.97 378.991 4.257 A 1.482 1.482 0 0 1 379.219 3.958 L 391.484 3.958 Q 395.156 9.74 401.563 21.458 Q 408.083 33.272 411.515 38.833 A 126.529 126.529 0 0 0 411.641 39.036 L 411.641 10.677 Q 411.25 10.365 410.078 10.365 A 247.889 247.889 0 0 1 409.536 10.391 Q 408.457 10.443 408.203 10.443 L 408.203 3.958 L 422.109 3.958 Z M 413.047 9.583 L 413.047 43.88 A 135.416 135.416 0 0 1 410.796 40.306 Q 408.288 36.197 405.012 30.343 A 597.315 597.315 0 0 1 401.875 24.661 Q 394.531 11.302 390.703 5.443 L 380.234 5.443 A 0.792 0.792 0 0 0 379.916 5.801 Q 379.736 6.175 379.758 6.853 A 5.156 5.156 0 0 0 379.766 7.005 A 271.847 271.847 0 0 1 379.821 7.429 Q 379.988 8.732 379.999 8.936 A 0.448 0.448 0 0 1 380 8.958 A 32.738 32.738 0 0 1 381.158 9.004 Q 383.447 9.139 383.828 9.583 A 107.591 107.591 0 0 0 383.794 10.938 Q 383.691 16.185 383.828 28.49 Q 383.906 40.521 383.438 47.24 Q 382.886 47.102 380.69 47.207 A 68.049 68.049 0 0 0 380.078 47.24 Q 380.078 47.911 380.02 48.755 A 32.945 32.945 0 0 1 380 49.036 Q 379.849 50.168 379.844 50.644 A 3.034 3.034 0 0 0 379.844 50.677 L 391.094 50.677 A 0.071 0.071 0 0 1 391.081 50.696 Q 390.956 50.814 391.227 47.37 A 220.781 220.781 0 0 1 391.25 47.083 A 8.392 8.392 0 0 1 390.543 47.251 Q 389.404 47.467 388.567 47.249 A 2.586 2.586 0 0 1 387.5 46.693 L 387.5 9.661 A 148.487 148.487 0 0 1 389.946 13.514 Q 392.655 17.915 396.133 24.081 A 605.483 605.483 0 0 1 399.453 30.052 A 1161.185 1161.185 0 0 0 403.208 36.82 Q 407.886 45.18 410.63 49.672 A 130.47 130.47 0 0 0 411.25 50.677 L 416.641 50.677 L 416.641 29.74 A 1178.012 1178.012 0 0 1 416.655 23.729 Q 416.699 15.13 416.875 9.036 L 420.703 9.036 L 420.703 5.443 L 409.688 5.443 L 409.688 8.958 A 20.9 20.9 0 0 1 410.686 8.98 Q 412.174 9.052 412.759 9.356 A 0.833 0.833 0 0 1 413.047 9.583 Z M 425.938 0.13 L 404.375 0.13 L 404.375 14.193 A 1.331 1.331 0 0 0 404.536 14.219 Q 404.98 14.271 406.25 14.271 A 8.044 8.044 0 0 1 406.514 14.256 Q 407.402 14.222 407.813 14.427 L 407.813 24.271 Q 405.156 19.896 400.938 12.318 A 2405.731 2405.731 0 0 0 398.877 8.584 Q 395.483 2.45 394.141 0.13 L 374.766 0.052 Q 375 1.693 374.688 6.302 Q 374.334 13.014 374.237 13.912 A 1.17 1.17 0 0 1 374.219 14.036 A 84.797 84.797 0 0 1 375.485 14.109 Q 377.2 14.22 378.041 14.364 A 5.75 5.75 0 0 1 378.359 14.427 Q 378.359 38.102 378.227 41.428 A 9.177 9.177 0 0 1 378.203 41.849 A 5.701 5.701 0 0 1 377.891 41.839 Q 377.536 41.82 377.023 41.76 A 31.413 31.413 0 0 1 376.484 41.693 Q 375.647 41.633 374.993 41.619 A 17.921 17.921 0 0 0 374.609 41.615 A 27655.709 27655.709 0 0 0 374.753 45.022 Q 375.223 56.152 375.234 56.152 A 0.03 0.03 0 0 0 375.234 56.146 A 46.674 46.674 0 0 1 376.133 56.114 Q 378.279 56.052 384.348 55.956 A 3284.679 3284.679 0 0 1 387.266 55.911 A 225.482 225.482 0 0 0 389.912 55.997 Q 394.246 56.111 397.031 55.99 A 805.907 805.907 0 0 0 396.89 53.607 Q 396.641 49.505 396.172 42.24 A 21.282 21.282 0 0 1 394.984 42.209 Q 393.838 42.144 393.066 41.946 A 4.93 4.93 0 0 1 392.734 41.849 L 392.734 28.958 Q 393.144 29.709 398.563 39.287 A 22045.812 22045.812 0 0 0 400.234 42.24 A 291.569 291.569 0 0 0 402.388 46.102 Q 405.508 51.595 407.969 55.286 L 421.875 55.286 L 421.875 14.271 Q 422.477 14.12 423.802 13.898 A 76.507 76.507 0 0 1 423.906 13.88 A 63.828 63.828 0 0 0 424.561 13.768 Q 425.469 13.607 425.938 13.49 L 425.938 0.13 Z M 268.047 17.63 L 282.188 17.63 L 282.188 0.052 L 241.328 0.052 Q 239.557 2.901 239.759 7.799 A 25.698 25.698 0 0 0 239.766 7.943 A 26.786 26.786 0 0 0 241.484 15.99 A 0.263 0.263 0 0 0 241.626 16.061 Q 241.904 16.113 242.5 15.755 A 3.693 3.693 0 0 1 242.746 15.632 Q 243.406 15.333 243.672 15.599 Q 243.672 17.792 243.74 27.576 A 13507.306 13507.306 0 0 0 243.75 28.958 A 500.279 500.279 0 0 1 243.735 32.889 Q 243.705 36.726 243.613 39.67 A 154.905 154.905 0 0 1 243.516 42.161 L 239.922 42.161 L 239.922 56.146 L 282.188 56.146 L 282.188 38.099 L 268.438 38.099 A 9.349 9.349 0 0 0 268.4 38.353 Q 268.343 38.766 268.258 39.543 A 128.111 128.111 0 0 0 268.203 40.052 A 13.986 13.986 0 0 1 268.154 40.667 Q 268.066 41.517 267.891 41.927 Q 261.38 42.233 259.6 42.014 A 5.405 5.405 0 0 1 259.531 42.005 L 259.531 34.661 L 273.047 34.661 A 4328.048 4328.048 0 0 0 272.991 31.593 Q 272.803 21.527 272.734 20.911 A 11.441 11.441 0 0 0 272.373 20.894 Q 271.071 20.85 267.256 20.895 A 564.101 564.101 0 0 0 266.016 20.911 A 123.673 123.673 0 0 1 264.058 20.897 Q 261.938 20.863 260.411 20.752 A 32.59 32.59 0 0 1 259.531 20.677 L 259.531 14.193 L 268.047 14.193 L 268.047 17.63 Z M 456.797 23.333 L 456.797 35.599 A 0.94 0.94 0 0 0 456.977 35.661 Q 457.406 35.772 458.516 35.833 Q 459.609 35.99 459.922 36.38 Q 459.922 36.782 459.979 38.558 A 588.966 588.966 0 0 0 460 39.193 Q 460 40.911 459.766 41.771 A 10.738 10.738 0 0 0 459.331 41.781 Q 458.838 41.801 458.157 41.862 A 45.764 45.764 0 0 0 457.5 41.927 A 124.034 124.034 0 0 1 456.793 42.007 Q 455.493 42.149 455.067 42.161 A 2.54 2.54 0 0 1 455 42.161 A 12.88 12.88 0 0 1 454.461 42.193 Q 451.936 42.286 451.016 41.224 A 149.478 149.478 0 0 0 451.118 38.573 Q 451.25 34.251 451.25 27.865 A 7696.066 7696.066 0 0 1 451.223 24.285 Q 451.174 17.357 451.172 14.922 A 239.401 239.401 0 0 1 451.172 14.74 A 22.676 22.676 0 0 1 452.629 14.538 Q 453.446 14.45 454.381 14.398 A 46.332 46.332 0 0 1 455.547 14.349 Q 458.75 14.271 459.766 14.896 A 2.029 2.029 0 0 1 460.361 15.568 Q 460.532 15.868 460.647 16.256 A 4.982 4.982 0 0 1 460.781 16.849 A 23.246 23.246 0 0 0 460.888 17.606 Q 461.084 18.844 461.328 19.271 L 473.281 19.271 Q 474.754 13.69 474.689 12.954 A 0.515 0.515 0 0 0 474.687 12.943 A 7.399 7.399 0 0 0 472.903 8.583 A 9.103 9.103 0 0 0 472.891 8.568 A 11.83 11.83 0 0 0 472.583 8.231 Q 472.231 7.858 471.733 7.382 A 44.13 44.13 0 0 0 471.25 6.927 A 59.645 59.645 0 0 1 470.674 6.38 Q 469.966 5.699 469.61 5.299 A 6.512 6.512 0 0 1 469.531 5.208 A 55.215 55.215 0 0 0 468.182 3.778 Q 465.925 1.478 464.766 0.99 A 9.723 9.723 0 0 0 463.022 0.477 Q 460.117 -0.116 455.285 0.276 A 57.428 57.428 0 0 0 455.156 0.286 Q 448.125 0.99 445.078 0.208 Q 444.954 0.208 444.879 0.357 A 0.642 0.642 0 0 0 444.844 0.443 Q 444.717 0.633 444.693 0.72 A 0.135 0.135 0 0 0 444.688 0.755 Q 444.035 2.349 440.427 5.153 A 52.577 52.577 0 0 1 439.844 5.599 A 13.313 13.313 0 0 0 437.699 7.48 Q 435.862 9.509 435.547 11.927 A 18.164 18.164 0 0 0 435.388 13.253 Q 435.231 15.074 435.279 17.743 A 83.963 83.963 0 0 0 435.312 19.036 A 1114.498 1114.498 0 0 1 435.445 21.358 Q 435.668 25.341 435.698 26.543 A 12.73 12.73 0 0 1 435.703 26.849 A 82.132 82.132 0 0 1 435.688 28.309 Q 435.645 30.726 435.473 34.645 A 510.04 510.04 0 0 1 435.469 34.74 A 333.251 333.251 0 0 0 435.366 36.966 Q 435.238 39.997 435.234 41.688 A 45.02 45.02 0 0 0 435.234 41.771 Q 435.313 44.896 436.953 47.396 A 10.863 10.863 0 0 0 437.733 48.482 Q 438.607 49.567 439.999 50.87 A 39.931 39.931 0 0 0 440.469 51.302 Q 442.573 53.283 443.991 54.234 A 9.36 9.36 0 0 0 444.687 54.661 A 11.162 11.162 0 0 0 448.051 55.833 A 14.809 14.809 0 0 0 450.391 56.068 Q 453.321 56.222 461.732 55.843 A 503.313 503.313 0 0 0 461.953 55.833 Q 469.976 55.444 474.427 55.676 A 50.924 50.924 0 0 1 474.453 55.677 L 474.453 23.333 L 456.797 23.333 Z M 271.875 10.365 L 255.859 10.365 A 24.681 24.681 0 0 0 255.667 12.063 Q 255.492 14.23 255.547 17.24 Q 255.693 22.868 255.702 24.324 A 28.227 28.227 0 0 1 255.703 24.505 Q 257.595 24.766 260.85 24.809 A 101.328 101.328 0 0 0 262.187 24.818 A 2901.544 2901.544 0 0 1 264.143 24.791 Q 267.738 24.744 268.884 24.74 A 54.911 54.911 0 0 1 269.063 24.74 Q 269.688 27.943 269.063 30.833 L 255.859 30.833 A 45.121 45.121 0 0 0 255.757 32.288 Q 255.625 34.661 255.625 38.177 A 3734.696 3734.696 0 0 1 255.652 40.348 Q 255.699 44.333 255.703 45.564 A 63.119 63.119 0 0 1 255.703 45.755 A 37.992 37.992 0 0 0 257.246 45.892 Q 258.978 46.013 261.292 46.051 A 136.547 136.547 0 0 0 263.516 46.068 A 4777.999 4777.999 0 0 1 265.872 46.041 Q 270.562 45.99 271.641 45.99 A 1.262 1.262 0 0 0 271.785 45.674 Q 271.946 45.171 271.953 44.206 A 12.242 12.242 0 0 0 271.953 44.115 A 373.685 373.685 0 0 1 271.927 43.493 Q 271.884 42.481 271.877 42.128 A 6.001 6.001 0 0 1 271.875 42.005 L 278.359 42.005 L 278.359 52.083 A 266.007 266.007 0 0 1 274.883 52.186 Q 269.258 52.318 261.172 52.318 A 19030.788 19030.788 0 0 0 256.203 52.291 Q 247.073 52.244 244.198 52.24 A 345.395 345.395 0 0 0 243.75 52.24 L 243.75 46.068 L 247.578 46.068 L 247.578 10.365 Q 246.953 9.974 245.625 10.208 A 203.747 203.747 0 0 1 245.294 10.282 Q 244.326 10.495 244.167 10.518 A 0.222 0.222 0 0 1 244.141 10.521 A 8.351 8.351 0 0 1 243.824 9.197 Q 243.672 8.242 243.672 7.083 Q 243.607 5.135 244.082 4.213 A 1.885 1.885 0 0 1 244.297 3.88 L 278.359 3.88 L 278.359 8.958 A 64.669 64.669 0 0 1 278.374 9.718 Q 278.408 12.298 278.203 13.802 L 271.875 13.802 L 271.875 10.365 Z M 107.266 42.083 L 102.266 42.083 A 43.221 43.221 0 0 0 101.849 41.128 Q 100.886 38.972 98.349 33.6 A 1729.425 1729.425 0 0 0 97.188 31.146 Q 100 29.271 101.328 27.083 A 10.33 10.33 0 0 0 102.425 24.274 Q 102.72 23.037 102.793 21.605 A 18.421 18.421 0 0 0 102.812 21.068 Q 102.813 21 102.458 16.558 A 9096.348 9096.348 0 0 0 102.344 15.13 A 28.618 28.618 0 0 1 102.3 14.257 Q 102.197 11.292 102.813 9.583 Q 100.716 8.685 98.404 5.849 A 26.069 26.069 0 0 1 98.203 5.599 A 50.701 50.701 0 0 0 97.027 4.129 Q 95.348 2.117 94.301 1.405 A 3.957 3.957 0 0 0 94.141 1.302 Q 91.921 -0.13 86.024 0.013 A 50.963 50.963 0 0 0 84.922 0.052 A 65.251 65.251 0 0 1 84.021 0.073 Q 80.039 0.145 62.545 0.269 A 15172.614 15172.614 0 0 1 60.078 0.286 Q 59.609 2.865 59.531 6.927 Q 59.531 12.285 59.469 13.676 A 9.058 9.058 0 0 1 59.453 13.958 Q 61.641 14.036 63.438 14.349 A 376.217 376.217 0 0 0 63.44 15.602 Q 63.451 18.733 63.506 26.894 A 14349.203 14349.203 0 0 0 63.516 28.333 A 538.011 538.011 0 0 1 63.501 32.411 Q 63.471 36.388 63.378 39.432 A 164.437 164.437 0 0 1 63.281 42.005 A 397.44 397.44 0 0 1 62.586 42.064 Q 59.731 42.302 59.833 42.244 A 0.063 0.063 0 0 1 59.844 42.24 Q 59.844 41.942 59.49 54.81 A 43793.831 43793.831 0 0 0 59.453 56.146 L 82.031 56.146 L 82.031 42.63 A 1.038 1.038 0 0 0 81.857 42.566 Q 81.543 42.475 80.899 42.418 A 15.601 15.601 0 0 0 80.625 42.396 A 8.06 8.06 0 0 1 80.156 42.347 Q 79.512 42.259 79.219 42.083 L 79.219 35.365 L 82.813 35.365 A 5.625 5.625 0 0 1 82.96 35.647 Q 83.314 36.363 84.15 38.303 A 228.18 228.18 0 0 1 84.297 38.646 Q 85.234 40.599 85.859 41.771 Q 85.929 41.355 85.445 52.976 A 6309.336 6309.336 0 0 1 85.313 56.146 L 107.266 56.146 L 107.266 42.083 Z M 230.391 0.13 L 206.172 0.13 A 24.528 24.528 0 0 0 205.905 2.078 Q 205.804 3.091 205.754 4.265 A 58.481 58.481 0 0 0 205.703 6.771 A 888.021 888.021 0 0 1 205.674 8.83 Q 205.61 12.928 205.547 13.88 A 0.618 0.618 0 0 0 205.687 13.945 Q 205.931 14.029 206.461 14.084 A 12.201 12.201 0 0 0 206.797 14.115 A 4.736 4.736 0 0 1 207.173 14.16 Q 207.754 14.256 207.949 14.481 A 0.451 0.451 0 0 1 207.969 14.505 A 832.554 832.554 0 0 1 206.568 19.198 Q 204.576 25.798 203.516 28.802 A 540.575 540.575 0 0 1 202.08 24.627 Q 200.059 18.665 198.828 14.505 L 200.156 14.505 A 2.866 2.866 0 0 0 200.267 14.513 Q 201.016 14.552 201.016 14.115 L 201.016 0.13 L 177.031 0.13 L 177.031 14.505 L 182.734 14.505 Q 191.094 38.802 196.328 56.146 L 210.469 56.146 A 175.564 175.564 0 0 0 211.431 53.328 Q 212.941 48.801 215.513 40.585 A 2037.758 2037.758 0 0 0 217.188 35.208 A 595.439 595.439 0 0 1 219.18 28.934 Q 221.378 22.149 223.164 17.296 A 159.36 159.36 0 0 1 224.219 14.505 A 56.164 56.164 0 0 0 226.771 14.45 Q 228.779 14.359 230.391 14.115 L 230.391 0.13 Z M 48.203 19.661 L 48.203 0.052 L 1.016 0.052 A 20.159 20.159 0 0 0 0.521 2.426 Q 0.14 4.93 0.087 8.416 A 76.008 76.008 0 0 0 0.078 9.583 Q 0.078 17.496 0.016 19.427 A 15.246 15.246 0 0 1 0 19.818 A 71.194 71.194 0 0 1 4.572 20.167 Q 10.982 20.882 13.75 22.708 L 13.75 18.333 A 49.679 49.679 0 0 1 13.735 17.671 Q 13.701 15.423 13.906 14.193 L 15.938 14.193 Q 16.25 36.146 16.016 42.161 L 12.109 42.161 L 12.109 56.146 L 36.016 56.146 L 36.016 42.396 A 27.59 27.59 0 0 1 34.588 42.361 Q 33.02 42.28 32.031 42.005 Q 32.031 39.666 31.963 29.392 A 14641.886 14641.886 0 0 0 31.953 27.943 A 539.964 539.964 0 0 1 31.968 23.861 Q 31.998 19.873 32.091 16.799 A 170.72 170.72 0 0 1 32.187 14.193 L 34.609 14.193 L 34.609 20.443 Q 35.347 20.443 40.885 20.304 A 3586.083 3586.083 0 0 0 41.563 20.286 A 59.434 59.434 0 0 0 43.942 20.199 Q 46.555 20.046 48.203 19.661 Z M 273.281 8.958 L 273.281 12.396 L 276.953 12.396 L 276.953 5.286 L 245.391 5.286 Q 244.688 6.068 245.078 8.88 A 34.812 34.812 0 0 1 246.191 8.897 Q 248.413 8.968 248.984 9.349 L 248.984 28.49 A 916.928 916.928 0 0 1 248.999 31.366 Q 249.024 38.548 248.921 43.806 A 270.516 270.516 0 0 1 248.828 47.396 L 245.156 47.396 L 245.156 50.833 L 276.953 50.833 L 276.953 43.411 L 273.125 43.411 A 3.371 3.371 0 0 1 273.293 44.111 Q 273.379 44.739 273.281 45.521 A 5.888 5.888 0 0 1 273.2 46.208 Q 273.066 46.944 272.746 47.381 A 1.789 1.789 0 0 1 272.734 47.396 A 31.481 31.481 0 0 0 272.025 47.362 Q 269.48 47.265 264.135 47.38 A 397.977 397.977 0 0 0 263.438 47.396 A 120.151 120.151 0 0 1 261.979 47.425 Q 257.125 47.492 254.402 47.099 A 19.509 19.509 0 0 1 254.297 47.083 Q 254.297 45.548 254.228 39.019 A 5721.34 5721.34 0 0 0 254.219 38.099 A 217.428 217.428 0 0 1 254.233 35.506 Q 254.267 32.691 254.378 30.623 A 61.765 61.765 0 0 1 254.453 29.427 L 267.813 29.427 L 267.813 26.146 L 254.297 26.146 A 68.761 68.761 0 0 0 254.296 25.803 Q 254.287 24.222 254.219 17.318 A 125.007 125.007 0 0 1 254.243 14.774 Q 254.299 12.026 254.484 10.077 A 31.136 31.136 0 0 1 254.609 8.958 L 273.281 8.958 Z M 226.484 4.036 L 226.484 10.365 A 2.384 2.384 0 0 1 226.073 10.483 Q 225.339 10.632 224.072 10.534 A 16.472 16.472 0 0 1 223.906 10.521 A 19.14 19.14 0 0 0 223.392 10.483 Q 222.032 10.401 221.431 10.591 A 1.584 1.584 0 0 0 221.406 10.599 A 179.367 179.367 0 0 0 219.362 16.042 Q 217.087 22.38 214.398 31.036 A 571.821 571.821 0 0 0 214.219 31.615 A 6634.759 6634.759 0 0 1 212.242 37.913 Q 209.016 48.174 207.839 51.768 A 111.307 111.307 0 0 1 207.422 53.021 L 199.609 53.021 Q 192.188 29.505 185.703 10.599 L 180.938 10.599 L 180.938 4.036 L 197.109 4.036 L 197.109 10.365 Q 197.422 10.286 193.438 10.599 A 146.702 146.702 0 0 0 194.302 13.558 Q 195.781 18.451 198.359 26.068 A 740.432 740.432 0 0 1 199.956 30.872 Q 201.477 35.505 202.478 38.808 A 159.021 159.021 0 0 1 203.281 41.536 A 122.32 122.32 0 0 0 204.807 37.557 Q 206.525 32.853 208.529 26.432 A 382.029 382.029 0 0 0 208.594 26.224 A 5191.457 5191.457 0 0 1 209.611 22.918 Q 212.753 12.716 213.434 10.683 A 22.511 22.511 0 0 1 213.516 10.443 A 9053.884 9053.884 0 0 1 212.599 10.425 Q 209.505 10.365 209.607 10.365 A 0.412 0.412 0 0 1 209.609 10.365 L 209.609 4.036 L 226.484 4.036 Z M 460.625 32.24 L 460.625 27.083 L 470.703 27.083 L 470.703 39.583 A 394.385 394.385 0 0 1 470.718 41.468 Q 470.741 45.828 470.654 49.087 A 118.495 118.495 0 0 1 470.547 51.927 L 458.828 51.927 Q 448.047 51.927 447.422 51.771 A 6.551 6.551 0 0 1 446.437 51.283 Q 445.012 50.441 442.969 48.568 A 30.757 30.757 0 0 1 441.673 47.307 Q 439.868 45.436 439.453 44.193 Q 439.382 43.766 439.44 37.371 A 1243.846 1243.846 0 0 1 439.453 36.068 A 492.385 492.385 0 0 0 439.539 31.259 Q 439.631 24.088 439.453 19.115 Q 439.312 12.957 439.619 11.608 A 1.438 1.438 0 0 1 439.688 11.38 A 4.326 4.326 0 0 1 440.279 10.344 Q 440.982 9.403 442.333 8.35 A 21.973 21.973 0 0 1 443.203 7.708 A 51.617 51.617 0 0 0 444.489 6.804 Q 446.577 5.282 447.188 4.427 Q 449.396 4.806 453.39 4.42 A 64.081 64.081 0 0 0 455.391 4.193 Q 460.469 3.49 462.969 4.349 A 3.928 3.928 0 0 1 463.763 4.791 Q 464.484 5.299 465.283 6.223 A 15.043 15.043 0 0 1 465.547 6.536 A 338.892 338.892 0 0 1 466.06 7.14 Q 467.803 9.193 467.734 9.193 A 111.082 111.082 0 0 1 468.465 9.902 Q 469.917 11.327 470.234 11.771 A 4.042 4.042 0 0 1 470.79 13.099 Q 470.98 13.986 470.732 14.945 A 5.278 5.278 0 0 1 470.547 15.521 L 464.766 15.521 A 97.038 97.038 0 0 0 463.697 14.068 Q 461.599 11.274 460.822 10.78 A 1.241 1.241 0 0 0 460.781 10.755 Q 459.766 10.755 456.641 10.599 A 72.78 72.78 0 0 0 455.814 10.553 Q 453.828 10.456 452.656 10.521 Q 450.361 10.642 448.999 11.489 A 3.957 3.957 0 0 0 447.266 13.724 Q 447.196 14.003 447.375 19.127 A 782.981 782.981 0 0 0 447.422 20.443 A 146.345 146.345 0 0 1 447.568 25.636 Q 447.607 29.2 447.49 33.038 A 204.929 204.929 0 0 1 447.422 34.974 Q 447.282 39.517 447.455 41.308 A 8.516 8.516 0 0 0 447.5 41.693 Q 448.047 44.818 450.391 45.755 A 7.459 7.459 0 0 0 451.938 46.177 Q 453.889 46.502 456.592 46.075 A 23.983 23.983 0 0 0 456.641 46.068 Q 461.25 45.208 463.516 45.521 A 26.012 26.012 0 0 0 463.677 43.966 Q 463.828 41.994 463.828 39.115 A 2837.287 2837.287 0 0 1 463.802 37.215 Q 463.754 33.726 463.75 32.642 A 48.995 48.995 0 0 1 463.75 32.474 A 0.538 0.538 0 0 0 463.594 32.397 Q 463.211 32.272 462.286 32.393 A 10.251 10.251 0 0 0 462.266 32.396 A 6.653 6.653 0 0 1 461.984 32.428 Q 461.291 32.49 460.886 32.361 A 1.03 1.03 0 0 1 460.625 32.24 Z M 212.266 9.193 L 213.438 9.193 A 4.995 4.995 0 0 1 214.008 9.223 Q 214.591 9.29 214.915 9.509 A 0.936 0.936 0 0 1 215.156 9.74 A 60.633 60.633 0 0 1 214.966 10.385 Q 214.043 13.47 209.531 28.099 A 251.895 251.895 0 0 1 207.429 34.549 Q 205.202 41.06 203.19 45.533 A 74.318 74.318 0 0 1 203.125 45.677 A 158.777 158.777 0 0 0 202.148 42.308 Q 200.449 36.654 197.344 27.396 A 524.351 524.351 0 0 1 195.493 21.82 Q 193.531 15.786 192.315 11.452 A 128.223 128.223 0 0 1 191.641 8.958 Q 191.25 8.802 195.703 9.115 L 195.703 5.521 L 182.422 5.521 L 182.422 9.115 L 186.641 9.115 A 1334.755 1334.755 0 0 1 189.624 17.923 Q 194.355 32.044 200.625 51.615 L 206.328 51.615 Q 207.644 47.813 212.449 32.451 A 4613.927 4613.927 0 0 0 213.125 30.286 A 586.434 586.434 0 0 1 215.127 24.056 Q 217.619 16.453 219.658 11.056 A 170.39 170.39 0 0 1 220.313 9.349 Q 220.163 9.424 224.6 9.212 A 624.207 624.207 0 0 0 225 9.193 L 225 5.521 L 210.938 5.521 Q 210.873 6.04 210.969 6.883 A 13.11 13.11 0 0 0 211.016 7.24 Q 211.149 8.241 211.112 8.9 A 4.02 4.02 0 0 1 211.094 9.115 A 2.989 2.989 0 0 0 211.344 9.152 Q 211.704 9.193 212.266 9.193 Z M 149.531 0.13 L 134.375 0.13 Q 132.162 5.633 129.079 14.891 A 628.179 628.179 0 0 0 127.109 20.911 A 1392.187 1392.187 0 0 1 124.849 27.855 Q 121.699 37.435 120 42.005 A 5.221 5.221 0 0 0 119.424 42.171 Q 118.493 42.489 116.815 43.295 A 72.355 72.355 0 0 0 115.781 43.802 L 115.781 56.146 L 137.344 56.146 L 137.344 43.646 Q 137.208 43.375 136.366 43.103 A 8.55 8.55 0 0 0 136.094 43.021 Q 135.385 42.785 135.123 42.459 A 0.705 0.705 0 0 1 135 42.24 Q 135.574 40.517 135.836 40.097 A 0.417 0.417 0 0 1 135.938 39.974 L 146.484 39.974 Q 146.484 40.338 146.626 40.797 A 4.823 4.823 0 0 0 146.719 41.068 Q 147.014 41.805 147.03 42.125 A 0.707 0.707 0 0 1 147.031 42.161 Q 146.96 42.233 145.851 42.174 A 37.673 37.673 0 0 1 145.625 42.161 A 2.832 2.832 0 0 0 145.506 42.153 Q 144.76 42.117 144.688 42.552 L 144.688 56.146 L 167.109 56.146 L 167.109 41.771 A 23.759 23.759 0 0 0 166.646 41.776 Q 165.898 41.79 164.844 41.849 Q 163.359 42.083 162.5 42.005 A 201.581 201.581 0 0 1 162.005 40.489 Q 160.822 36.833 157.471 26.294 A 15462.026 15462.026 0 0 1 155.859 21.224 A 1036.307 1036.307 0 0 1 153.97 15.16 Q 151.467 7.036 149.769 0.981 A 352.787 352.787 0 0 1 149.531 0.13 Z M 103.438 45.833 L 103.438 52.083 A 31.999 31.999 0 0 1 101.696 52.247 Q 99.555 52.396 96.484 52.396 A 3400.197 3400.197 0 0 0 94.423 52.369 Q 90.638 52.322 89.477 52.318 A 56.151 56.151 0 0 0 89.297 52.318 L 89.297 45.911 L 91.875 45.911 Q 90.938 43.411 88.75 38.724 A 258.971 258.971 0 0 1 87.695 36.517 Q 86.23 33.411 85.469 31.536 L 75.625 31.536 A 21.28 21.28 0 0 0 75.388 33.288 Q 75.18 35.438 75.234 38.411 Q 75.391 44.193 75.391 45.677 Q 75.59 45.876 76.465 45.906 A 9.717 9.717 0 0 0 76.797 45.911 A 8.309 8.309 0 0 1 77.027 45.898 Q 77.925 45.859 78.203 46.068 L 78.203 52.083 A 33.9 33.9 0 0 1 76.419 52.246 Q 74.203 52.396 71.016 52.396 A 3599.388 3599.388 0 0 0 68.871 52.369 Q 64.933 52.322 63.706 52.318 A 62.771 62.771 0 0 0 63.516 52.318 L 63.516 45.911 L 67.266 45.911 L 67.266 10.599 A 1.232 1.232 0 0 0 67.014 10.51 Q 66.512 10.385 65.513 10.44 A 13.34 13.34 0 0 0 65.469 10.443 A 7.569 7.569 0 0 1 65.06 10.504 Q 64.04 10.627 63.516 10.365 L 63.516 4.115 Q 66.715 4.038 74.372 4.111 A 1128.043 1128.043 0 0 1 74.766 4.115 Q 81.226 4.246 84.849 4.156 A 71.415 71.415 0 0 0 86.094 4.115 A 181.888 181.888 0 0 1 87.129 4.08 Q 90.096 3.991 90.9 4.083 A 1.564 1.564 0 0 1 91.094 4.115 A 4.776 4.776 0 0 1 92.498 4.867 Q 93.624 5.713 94.751 7.339 A 18.594 18.594 0 0 1 95 7.708 A 21.104 21.104 0 0 0 95.957 9.119 Q 96.96 10.467 97.873 11.121 A 3.847 3.847 0 0 0 98.594 11.536 Q 98.281 13.333 98.672 19.583 A 20.792 20.792 0 0 1 98.733 20.534 Q 98.833 23.043 98.227 24.655 A 4.807 4.807 0 0 1 97.422 26.068 A 5.292 5.292 0 0 1 96.94 26.532 Q 96.387 27.007 95.508 27.576 A 25.552 25.552 0 0 1 94.922 27.943 A 9.811 9.811 0 0 0 93.905 28.659 Q 93.391 29.076 93.02 29.516 A 4.724 4.724 0 0 0 92.578 30.13 A 39.415 39.415 0 0 0 93.149 31.556 Q 94.11 33.839 95.903 37.55 A 272.427 272.427 0 0 0 96.094 37.943 Q 98.026 42.064 99.108 44.752 A 55.127 55.127 0 0 1 99.531 45.833 L 103.438 45.833 Z M 331.484 32.943 L 317.578 32.943 A 68.267 68.267 0 0 1 317.574 33.645 Q 317.56 34.98 317.5 37.552 Q 317.344 40.286 317.5 42.005 A 18.246 18.246 0 0 1 316.504 42.097 Q 314.902 42.206 311.986 42.232 A 217.431 217.431 0 0 1 310.078 42.24 L 310.078 14.349 L 314.688 14.349 L 314.688 0.208 L 290.234 0.208 Q 290.681 1.847 290.489 5.543 A 53.769 53.769 0 0 1 290.469 5.911 Q 290.005 12.944 290.535 12.944 A 0.083 0.083 0 0 0 290.547 12.943 A 10.416 10.416 0 0 0 291.204 13.245 Q 291.524 13.378 291.81 13.467 A 4.777 4.777 0 0 0 292.188 13.568 A 15.263 15.263 0 0 1 292.876 13.802 Q 293.828 14.154 294.297 14.505 A 489.687 489.687 0 0 1 294.492 28.333 A 489.687 489.687 0 0 1 294.297 42.161 A 14.606 14.606 0 0 0 293.945 42.21 Q 293.359 42.298 292.422 42.474 A 12.182 12.182 0 0 1 291.728 42.639 Q 291.367 42.713 291.052 42.75 A 5.028 5.028 0 0 1 290.469 42.786 L 290.469 56.146 L 331.484 56.146 L 331.484 32.943 Z M 469.297 50.521 L 469.297 28.49 L 461.953 28.49 L 461.953 30.833 A 0.94 0.94 0 0 0 462.134 30.896 Q 462.562 31.006 463.672 31.068 Q 464.922 31.068 465.156 31.615 L 465.156 39.505 A 154.904 154.904 0 0 1 465.171 40.684 Q 465.204 44.617 465.008 47.059 A 33.797 33.797 0 0 1 465 47.161 A 10.982 10.982 0 0 0 463.337 46.866 Q 461.062 46.63 458.025 47.122 A 33.262 33.262 0 0 0 457.344 47.24 A 27.11 27.11 0 0 1 455.566 47.494 Q 452.409 47.834 450.329 47.191 A 7.459 7.459 0 0 1 450.234 47.161 A 2.563 2.563 0 0 1 449.708 46.943 Q 449.181 46.661 448.507 46.084 A 14.853 14.853 0 0 1 447.969 45.599 A 9.985 9.985 0 0 1 447.133 44.709 Q 446.311 43.71 446.094 42.786 Q 445.95 42.282 446.005 36.599 A 485.863 485.863 0 0 1 446.016 35.599 A 481.761 481.761 0 0 0 446.12 25.564 A 489.235 489.235 0 0 0 446.094 20.521 A 454.425 454.425 0 0 1 446.039 18.827 Q 445.895 14.086 445.992 13.299 A 0.687 0.687 0 0 1 446.016 13.177 A 5.185 5.185 0 0 1 449.466 9.776 Q 450.424 9.444 451.622 9.318 A 13.418 13.418 0 0 1 452.187 9.271 A 21.752 21.752 0 0 1 452.775 9.247 Q 454.18 9.207 456.719 9.271 A 107.978 107.978 0 0 0 457.689 9.316 Q 460 9.414 461.172 9.349 A 1.255 1.255 0 0 1 461.294 9.458 Q 461.943 10.081 465.703 14.115 Q 469.766 13.333 469.531 13.724 Q 469.41 12.877 468.774 11.937 A 7.932 7.932 0 0 0 468.359 11.38 L 467.344 10.365 L 466.328 9.349 A 75.568 75.568 0 0 0 465.26 8.247 Q 463.123 6.091 462.357 5.761 A 1.193 1.193 0 0 0 462.344 5.755 Q 460.202 4.943 455.896 5.387 A 38.155 38.155 0 0 0 455.391 5.443 A 66.815 66.815 0 0 1 453.404 5.681 Q 449.919 6.043 448.055 5.792 A 7.901 7.901 0 0 1 447.813 5.755 Q 447.303 6.455 445.135 7.985 A 63.369 63.369 0 0 1 444.063 8.724 Q 441.406 10.521 440.859 12.318 A 2.488 2.488 0 0 0 440.808 12.635 Q 440.654 14.036 440.859 19.505 A 128.411 128.411 0 0 1 440.939 22.187 Q 441.042 27.31 440.859 34.818 Q 440.859 35.52 440.703 37.577 A 198.057 198.057 0 0 1 440.625 38.568 A 40.554 40.554 0 0 0 440.521 39.721 Q 440.412 41.191 440.469 42.161 Q 440.625 44.583 443.984 47.708 A 22.139 22.139 0 0 0 445.661 49.093 Q 447.888 50.739 449.609 50.911 A 13.467 13.467 0 0 0 450.389 50.981 Q 452.635 51.12 456.994 50.821 A 151.281 151.281 0 0 0 458.906 50.677 A 113.149 113.149 0 0 1 461.7 50.483 Q 466.428 50.216 469.297 50.521 Z M 68.516 47.24 L 64.688 47.24 A 7.072 7.072 0 0 0 64.7 47.634 Q 64.731 48.194 64.844 49.036 A 11.208 11.208 0 0 1 64.919 49.69 Q 64.967 50.271 64.936 50.745 A 4.939 4.939 0 0 1 64.922 50.911 L 76.797 50.911 L 76.797 47.318 Q 76.719 47.318 76.25 47.24 L 75.391 47.24 A 4.214 4.214 0 0 1 74.921 47.182 Q 74.224 47.052 73.984 46.693 L 73.984 38.177 Q 73.909 33.148 74.339 30.354 A 18.179 18.179 0 0 1 74.375 30.13 L 86.484 30.13 Q 87.322 32.463 89.029 36.261 A 215.532 215.532 0 0 0 90.156 38.724 A 156.952 156.952 0 0 1 91.416 41.336 Q 92.723 44.115 93.477 46.066 A 31.951 31.951 0 0 1 93.906 47.24 L 90.547 47.24 A 13.625 13.625 0 0 0 90.552 47.586 Q 90.562 47.979 90.593 48.517 A 55.959 55.959 0 0 0 90.625 49.036 A 11.208 11.208 0 0 1 90.7 49.69 Q 90.748 50.271 90.717 50.745 A 4.939 4.939 0 0 1 90.703 50.911 L 101.953 50.911 L 101.953 47.318 L 98.828 47.318 A 65.244 65.244 0 0 0 98.174 45.75 Q 97.088 43.231 95.13 39.085 A 459.748 459.748 0 0 0 94.922 38.646 A 124.834 124.834 0 0 1 93.414 35.483 Q 91.924 32.23 91.172 29.974 A 3.588 3.588 0 0 1 91.741 28.907 Q 92.383 28.051 93.623 27.195 A 14.122 14.122 0 0 1 93.906 27.005 A 17.415 17.415 0 0 0 95.005 26.278 Q 96.06 25.515 96.601 24.82 A 3.317 3.317 0 0 0 96.953 24.271 A 5.177 5.177 0 0 0 97.364 23.086 Q 97.655 21.788 97.5 19.974 A 36.842 36.842 0 0 1 97.458 19.671 Q 97.371 19.017 97.188 17.552 Q 97.031 16.068 96.953 15.208 Q 96.953 14.855 97.042 14.191 A 23.992 23.992 0 0 1 97.109 13.724 A 56.682 56.682 0 0 0 97.136 13.424 Q 97.186 12.843 97.187 12.645 A 1.583 1.583 0 0 0 97.188 12.63 Q 97.188 12.552 94.141 8.802 A 28.052 28.052 0 0 0 93.194 7.684 Q 91.584 5.887 90.547 5.521 Q 89.141 5.13 84.922 5.286 A 73.406 73.406 0 0 1 82.973 5.366 Q 78.234 5.509 66.716 5.52 A 2074.4 2074.4 0 0 1 64.688 5.521 A 5.967 5.967 0 0 0 64.697 5.838 Q 64.717 6.202 64.776 6.745 A 37.581 37.581 0 0 0 64.844 7.318 A 9.446 9.446 0 0 1 64.922 7.969 Q 64.967 8.516 64.933 8.983 A 4.97 4.97 0 0 1 64.922 9.115 A 39.52 39.52 0 0 1 66.006 9.128 Q 68.16 9.188 68.67 9.504 A 0.731 0.731 0 0 1 68.672 9.505 Q 68.672 12.722 68.74 26.541 A 25898.807 25898.807 0 0 0 68.75 28.49 A 1004.055 1004.055 0 0 1 68.735 34.056 Q 68.705 39.494 68.613 43.686 A 317.146 317.146 0 0 1 68.516 47.24 Z M 32.031 52.24 L 16.016 52.24 L 16.016 46.068 L 19.609 46.068 Q 20.156 39.583 20.078 28.568 A 22989.502 22989.502 0 0 1 20.052 23.366 Q 20 13.011 20 10.599 Q 20.391 10.599 9.922 10.365 L 9.922 16.849 Q 9.071 16.353 7.448 16.307 A 11.988 11.988 0 0 0 7.109 16.302 A 53.501 53.501 0 0 1 6.549 16.318 Q 4.678 16.361 4.063 16.224 A 5097.568 5097.568 0 0 0 4.157 13.601 Q 4.513 3.587 4.456 3.859 A 0.288 0.288 0 0 0 4.453 3.88 L 44.297 3.88 L 44.297 16.224 A 3.417 3.417 0 0 1 43.789 16.347 Q 42.891 16.499 41.406 16.38 A 33.472 33.472 0 0 0 40.917 16.346 Q 39.268 16.244 38.516 16.38 L 38.516 10.599 A 10.366 10.366 0 0 0 37.151 10.307 Q 35.651 10.083 33.613 10.128 A 32.567 32.567 0 0 0 33.516 10.13 A 976.188 976.188 0 0 1 31.898 10.21 Q 29.283 10.336 28.422 10.359 A 11.857 11.857 0 0 1 28.125 10.365 Q 27.969 17.318 28.047 28.021 A 24840.513 24840.513 0 0 1 28.073 33.215 Q 28.116 41.682 28.123 44.697 A 440.458 440.458 0 0 1 28.125 45.755 A 1.738 1.738 0 0 0 28.506 45.91 Q 29.056 46.068 30 46.068 A 302.952 302.952 0 0 1 30.624 46.041 Q 31.772 45.994 32.131 45.99 A 5.409 5.409 0 0 1 32.188 45.99 L 32.188 49.271 Q 32.188 51.302 32.031 52.24 Z M 39.844 9.349 L 39.844 15.052 L 42.891 15.052 L 42.891 5.286 L 5.625 5.286 Q 5.2 6.844 5.289 9.364 A 28.172 28.172 0 0 0 5.313 9.896 Q 5.469 13.958 5.469 14.974 L 8.438 14.974 L 8.438 8.958 A 35.856 35.856 0 0 0 8.679 8.957 Q 9.751 8.949 14.488 8.889 A 8676.228 8676.228 0 0 0 15.156 8.88 A 58.983 58.983 0 0 1 17.325 8.917 Q 19.89 9.012 21.406 9.349 A 111.397 111.397 0 0 0 21.372 10.723 Q 21.276 15.718 21.391 26.946 A 1803.249 1803.249 0 0 0 21.406 28.411 Q 21.563 40.599 21.094 47.396 L 17.422 47.396 L 17.422 50.833 L 30.781 50.833 L 30.781 47.24 A 10.602 10.602 0 0 1 29.989 47.407 Q 28.021 47.742 26.96 47.034 A 2.333 2.333 0 0 1 26.719 46.849 L 26.719 27.786 Q 26.719 17.513 26.844 10.553 A 482.17 482.17 0 0 1 26.875 8.958 A 35.856 35.856 0 0 0 27.117 8.957 Q 28.262 8.949 33.594 8.88 A 58.983 58.983 0 0 1 35.762 8.917 Q 38.328 9.012 39.844 9.349 Z M 163.281 45.99 L 163.281 52.083 Q 160.882 52.295 156.889 52.316 A 170.363 170.363 0 0 1 156.016 52.318 L 148.516 52.318 L 148.516 46.068 L 152.344 46.068 Q 151.88 44.136 150.881 41.134 A 118.363 118.363 0 0 0 150.859 41.068 A 1046.829 1046.829 0 0 0 150.384 39.55 Q 149.785 37.645 149.466 36.661 A 70.58 70.58 0 0 0 149.297 36.146 L 133.125 36.146 A 3.752 3.752 0 0 0 133.02 36.4 Q 132.49 37.767 129.688 45.833 Q 130.028 46.037 131.197 46.064 A 16.237 16.237 0 0 0 131.563 46.068 A 17.312 17.312 0 0 1 131.845 46.056 Q 132.869 46.021 133.311 46.142 A 0.825 0.825 0 0 1 133.516 46.224 L 133.516 52.083 A 37.216 37.216 0 0 1 132.183 52.186 Q 130 52.318 126.719 52.318 L 119.609 52.318 L 119.609 46.224 A 0.92 0.92 0 0 1 119.764 46.197 Q 120.297 46.134 122.442 46.072 A 202.46 202.46 0 0 1 122.578 46.068 A 126.613 126.613 0 0 0 124.028 42.288 Q 126.269 36.192 129.502 26.048 A 823.346 823.346 0 0 0 129.844 24.974 A 523.005 523.005 0 0 1 131.973 18.358 Q 135.02 9.115 137.188 3.958 L 146.484 3.958 Q 148.721 11.366 152.145 22.4 A 4731.184 4731.184 0 0 0 152.969 25.052 A 133369.512 133369.512 0 0 0 154.892 31.12 Q 158.041 41.052 159.201 44.705 A 2747.855 2747.855 0 0 0 159.609 45.99 L 163.281 45.99 Z M 327.578 36.771 L 327.578 52.083 Q 322.023 52.365 313.115 52.329 A 557.044 557.044 0 0 1 311.094 52.318 L 294.297 52.318 L 294.297 46.068 L 298.125 46.068 Q 298.594 28.255 298.125 10.521 A 0.739 0.739 0 0 0 297.943 10.447 Q 297.547 10.337 296.68 10.408 A 12.476 12.476 0 0 0 296.328 10.443 A 9.256 9.256 0 0 1 295.935 10.478 Q 294.831 10.553 294.297 10.286 L 294.297 6.849 A 12.66 12.66 0 0 1 294.289 6.535 Q 294.271 5.069 294.63 4.357 A 1.489 1.489 0 0 1 294.844 4.036 L 310.859 4.036 L 310.859 7.318 A 29.668 29.668 0 0 1 310.874 7.828 Q 310.907 9.487 310.719 10.372 A 4.145 4.145 0 0 1 310.703 10.443 L 306.25 10.443 A 274.257 274.257 0 0 0 306.143 14.65 Q 306.056 19.405 306.079 25.482 A 751.852 751.852 0 0 0 306.094 28.099 A 21949.829 21949.829 0 0 1 306.12 33.221 Q 306.172 43.421 306.172 45.833 Q 308.781 46.057 313.099 46.067 A 176.334 176.334 0 0 0 313.516 46.068 L 321.172 46.068 Q 321.406 44.505 321.406 41.536 A 1637.174 1637.174 0 0 1 321.38 40.155 Q 321.328 37.406 321.328 36.771 L 327.578 36.771 Z M 145.469 5.443 L 137.969 5.443 Q 135.811 10.837 131.6 24.113 A 981.354 981.354 0 0 0 130.859 26.458 A 390.62 390.62 0 0 1 128.784 32.913 Q 126.485 39.844 124.572 44.56 A 88.805 88.805 0 0 1 123.438 47.24 A 4.604 4.604 0 0 1 122.246 47.396 Q 121.641 47.396 121.016 47.24 L 121.016 50.833 L 132.109 50.833 L 132.109 47.24 Q 130.356 47.386 129.9 47.395 A 2.755 2.755 0 0 1 129.844 47.396 Q 128.79 47.396 128.35 47.001 A 0.904 0.904 0 0 1 128.125 46.693 A 269.577 269.577 0 0 1 129.269 42.84 Q 131.033 37.072 132.109 34.74 L 150.313 34.74 A 33.554 33.554 0 0 0 150.479 35.298 Q 150.947 36.829 152.344 41.146 Q 153.374 44.365 153.767 46.524 A 18.543 18.543 0 0 1 153.906 47.396 L 149.922 47.396 L 149.922 50.833 L 161.797 50.833 L 161.797 47.474 Q 159.266 47.244 158.693 47.39 A 0.756 0.756 0 0 0 158.672 47.396 A 1463.157 1463.157 0 0 0 157.524 43.744 Q 155.755 38.135 152.756 28.729 A 11220.997 11220.997 0 0 0 152.031 26.458 A 130467.936 130467.936 0 0 0 150.039 20.077 Q 148.105 13.883 146.67 9.289 A 34629.362 34629.362 0 0 0 145.469 5.443 Z M 305 9.115 L 309.453 9.115 L 309.453 5.443 L 295.938 5.443 A 1.223 1.223 0 0 0 295.656 5.901 Q 295.511 6.305 295.541 6.909 A 4.609 4.609 0 0 0 295.547 7.005 A 27.598 27.598 0 0 1 295.624 7.553 Q 295.76 8.608 295.708 9.002 A 1.036 1.036 0 0 1 295.703 9.036 A 39.825 39.825 0 0 1 296.79 9.05 Q 298.4 9.094 299.13 9.281 A 1.718 1.718 0 0 1 299.531 9.427 Q 299.766 38.88 299.375 47.24 L 295.703 47.24 L 295.703 50.833 L 326.172 50.833 L 326.172 38.177 L 322.578 38.177 A 123.595 123.595 0 0 1 322.637 39.816 Q 322.775 44.605 322.406 46.628 A 5.02 5.02 0 0 1 322.187 47.474 A 20.009 20.009 0 0 0 321.393 47.412 Q 318.883 47.263 313.438 47.396 Q 307.93 47.547 305.045 47.115 A 16.837 16.837 0 0 1 304.844 47.083 A 199.09 199.09 0 0 0 304.843 46.613 Q 304.834 44.007 304.766 27.943 A 979.524 979.524 0 0 1 304.78 22.459 Q 304.824 14.622 305 9.115 Z M 364.531 14.583 L 364.531 0.052 L 341.016 0.052 A 37.216 37.216 0 0 0 340.913 1.385 Q 340.781 3.568 340.781 6.849 A 3270.557 3270.557 0 0 1 340.808 8.884 Q 340.855 12.621 340.859 13.779 A 55.813 55.813 0 0 1 340.859 13.958 A 1.904 1.904 0 0 0 341.131 14.023 Q 341.606 14.106 342.529 14.114 A 23.463 23.463 0 0 0 342.734 14.115 Q 344.141 14.115 344.609 14.349 L 344.609 41.927 Q 343.956 42 342.897 41.937 A 21.185 21.185 0 0 1 342.734 41.927 A 33.596 33.596 0 0 0 342.148 41.859 Q 341.537 41.793 341.121 41.777 A 6.564 6.564 0 0 0 340.859 41.771 L 340.859 56.146 L 364.531 56.146 L 364.531 42.396 A 24.509 24.509 0 0 1 363.117 42.358 Q 361.67 42.274 360.703 42.005 L 360.703 14.193 A 1.446 1.446 0 0 0 360.996 14.295 Q 361.472 14.414 362.379 14.426 A 15.678 15.678 0 0 0 362.578 14.427 A 19.996 19.996 0 0 1 363.218 14.437 Q 364.119 14.466 364.531 14.583 Z M 360.625 45.99 L 360.625 52.083 Q 357.813 52.318 352.813 52.318 L 344.688 52.318 L 344.688 46.068 L 348.516 46.068 L 348.516 10.599 A 0.901 0.901 0 0 0 348.253 10.463 Q 347.82 10.309 346.921 10.289 A 12.627 12.627 0 0 0 346.641 10.286 A 15.208 15.208 0 0 1 346.328 10.3 Q 345.105 10.339 344.688 10.13 L 344.688 3.88 L 360.625 3.88 L 360.625 10.13 A 3.72 3.72 0 0 1 360.352 10.163 Q 359.902 10.204 359.085 10.208 A 37.289 37.289 0 0 1 358.906 10.208 A 80.392 80.392 0 0 0 358.281 10.247 Q 357.677 10.288 357.239 10.328 A 19.417 19.417 0 0 0 356.875 10.365 L 356.875 45.755 Q 357.344 46.068 358.594 46.068 A 327.903 327.903 0 0 1 359.189 46.041 Q 360.159 45.999 360.504 45.991 A 5.768 5.768 0 0 1 360.625 45.99 Z M 359.219 8.88 L 359.219 5.286 L 346.328 5.286 A 1.379 1.379 0 0 0 346.17 5.627 Q 346.058 5.973 346.027 6.502 A 7.357 7.357 0 0 0 346.016 6.927 A 286.036 286.036 0 0 1 346.042 7.496 Q 346.094 8.626 346.094 8.88 A 33.191 33.191 0 0 1 347.18 8.897 Q 348.85 8.952 349.573 9.19 A 1.454 1.454 0 0 1 349.922 9.349 L 349.922 47.396 A 7.01 7.01 0 0 0 349.297 47.317 Q 348.242 47.227 346.664 47.347 A 32.381 32.381 0 0 0 346.094 47.396 L 346.094 50.833 L 359.219 50.833 L 359.219 47.24 A 8.918 8.918 0 0 1 358.491 47.407 Q 357.341 47.619 356.501 47.413 A 2.594 2.594 0 0 1 355.391 46.849 L 355.391 8.724 A 0.064 0.064 0 0 1 355.372 8.711 Q 355.255 8.581 359.219 8.88 Z M 81.719 26.536 Q 76.641 25.911 74.219 26.458 Q 73.75 17.943 74.141 9.349 A 10.27 10.27 0 0 0 74.596 9.376 Q 76.631 9.454 81.641 9.036 A 39.757 39.757 0 0 1 82.908 8.929 Q 85.733 8.738 87.457 9.08 A 6.424 6.424 0 0 1 88.438 9.349 Q 89.688 9.818 90.703 11.068 L 92.5 13.177 Q 92.575 19.224 92.293 21.062 A 5.956 5.956 0 0 1 92.266 21.224 A 8.592 8.592 0 0 1 91.597 23.365 A 5.71 5.71 0 0 1 88.516 26.302 A 5.835 5.835 0 0 1 87.43 26.615 Q 85.346 27.02 81.719 26.536 Z M 138.008 15.888 A 93.746 93.746 0 0 0 136.641 20.052 A 1923.52 1923.52 0 0 1 135.804 22.771 Q 134.008 28.588 133.288 30.76 A 36.839 36.839 0 0 1 132.969 31.693 A 15.736 15.736 0 0 1 133.473 31.648 Q 135.791 31.475 141.172 31.615 Q 146.563 31.771 149.297 31.224 Q 148.359 28.802 145.625 19.74 A 15.263 15.263 0 0 0 145.552 19.43 Q 145.407 18.838 145.095 17.687 A 239.385 239.385 0 0 0 144.844 16.771 A 63.907 63.907 0 0 0 144.801 16.601 Q 144.357 14.846 143.984 13.802 Q 143.344 11.834 142.434 10.536 A 6.539 6.539 0 0 0 141.016 9.036 A 25.05 25.05 0 0 0 140.698 9.609 Q 139.353 12.113 138.008 15.888 Z M 76.067 24.843 A 10.995 10.995 0 0 0 75.391 24.896 A 170.422 170.422 0 0 1 75.339 23.256 Q 75.251 19.941 75.281 16.333 A 248.273 248.273 0 0 1 75.391 10.755 A 5231.681 5231.681 0 0 1 77.47 10.663 Q 83.245 10.407 84.423 10.371 A 10.493 10.493 0 0 1 84.688 10.365 Q 90 10.677 91.172 13.646 Q 91.36 18.032 91.096 20.207 A 9.115 9.115 0 0 1 90.937 21.146 A 7.03 7.03 0 0 1 90.424 22.737 A 4.457 4.457 0 0 1 87.266 25.286 Q 85.712 25.597 83.021 25.364 A 38.737 38.737 0 0 1 81.563 25.208 Q 78.109 24.744 76.067 24.843 Z M 134.766 30.208 L 147.266 30.208 A 9204.738 9204.738 0 0 0 145.924 25.893 Q 142.005 13.298 141.359 11.378 A 7.416 7.416 0 0 0 141.25 11.068 A 80.337 80.337 0 0 0 140.576 12.865 Q 139.831 14.919 138.878 17.804 A 350.774 350.774 0 0 0 137.969 20.599 Q 136.026 26.786 134.945 29.727 A 54.662 54.662 0 0 1 134.766 30.208 Z M 79.219 21.068 L 79.219 14.427 A 533.361 533.361 0 0 0 81.021 14.51 Q 87.358 14.79 86.875 14.583 A 15.459 15.459 0 0 1 87.112 16.072 Q 87.32 17.902 87.266 20.443 A 2.134 2.134 0 0 1 86.387 21.122 Q 85.407 21.558 83.672 21.458 Q 83.306 21.458 81.642 21.253 A 136.168 136.168 0 0 1 81.406 21.224 A 38.961 38.961 0 0 0 80.742 21.156 Q 79.805 21.068 79.219 21.068 Z M 142.813 27.24 L 139.453 27.24 Q 139.658 24.513 139.684 24.106 A 1.937 1.937 0 0 0 139.687 24.036 A 2.11 2.11 0 0 1 140.005 23.378 Q 140.56 22.631 141.765 22.751 A 4.05 4.05 0 0 1 142.031 22.786 Q 142.856 24.691 142.856 26.44 A 7.232 7.232 0 0 1 142.812 27.24 Z" vector-effect="non-scaling-stroke"/></g></svg>